<?xml version="1.0" standalone="no"?>
<!DOCTYPE svg PUBLIC "-//W3C//DTD SVG 1.1//EN" "http://www.w3.org/Graphics/SVG/1.1/DTD/svg11.dtd" >
<!--
2013-9-30: Created.
-->
<svg>
<metadata>
Created by iconfont
</metadata>
<defs>

<font id="iconfont" horiz-adv-x="1024" >
  <font-face
    font-family="iconfont"
    font-weight="500"
    font-stretch="normal"
    units-per-em="1024"
    ascent="896"
    descent="-128"
  />
    <missing-glyph />
    
    <glyph glyph-name="yonghu1" unicode="&#58904;" d="M514 781.5c-219.8 0-398.7-178.8-398.7-398.7 0-219.8 178.8-398.7 398.7-398.7S912.7 163 912.7 382.8c0 219.8-178.9 398.7-398.7 398.7z m0-754.6c-196.3 0-355.9 159.7-355.9 356S317.8 738.8 514 738.8s355.9-159.7 355.9-355.9c0-196.4-159.6-356-355.9-356zM514 394.5c85.7 0 155.1 69.4 155.1 155.1 0 85.7-69.4 155.1-155.1 155.1-85.7 0-155.1-69.4-155.1-155.1 0-85.7 69.4-155.1 155.1-155.1z m0 267.5c62 0 112.4-50.4 112.4-112.4S576 437.2 514 437.2s-112.4 50.4-112.4 112.4S452 662 514 662zM626.9 398.1c-31.5-23.5-70.5-37.4-112.9-37.4-42.3 0-81.4 13.9-112.9 37.4-70.2-30.7-125.5-89-152.1-161.2 51.6-93.3 151-156.6 264.9-156.6s213.3 63.3 264.9 156.6c-26.5 72.2-81.8 130.5-151.9 161.2zM514 123c-87.8 0-169.3 44.5-217.2 117.5 21.4 45.8 57.1 84 101.3 108.5 35.1-20.4 74.7-31 115.9-31s80.8 10.7 115.9 31c44.2-24.5 79.9-62.8 101.3-108.5C683.3 167.5 601.8 123 514 123z"  horiz-adv-x="1024" />

    
    <glyph glyph-name="icon_password" unicode="&#58901;" d="M672 418.304c76.512 44.288 128 127.040 128 221.696 0 141.312-114.72 256-256 256-141.28 0-256-114.688-256-256 0-94.656 51.488-177.408 128-221.696v-98.304l32-48-32-48v-64l32-48-32-48v-112c0 0 51.904-38.912 89.6-67.2 22.752-17.056 54.048-17.056 76.8 0 37.696 28.288 89.6 67.2 89.6 67.2v466.304zM544 800c35.328 0 64-28.672 64-64 0-35.296-28.672-64-64-64-35.328 0-64 28.704-64 64 0 35.328 28.672 64 64 64z"  horiz-adv-x="1024" />

    
    <glyph glyph-name="dui" unicode="&#58940;" d="M512.154014 896c-282.66615 0-511.847009-229.172493-511.847009-511.826038 0-282.653545 229.18086-511.826038 511.847009-511.826038s511.844963 229.172493 511.844963 511.826038C1023.998977 666.827507 794.820164 896 512.154014 896zM512.154014-31.685397c-229.6823 0-415.875375 186.187493-415.875375 415.859359S282.471714 800.033321 512.154014 800.033321c229.67923 0 415.874352-186.187493 415.874352-415.859359S741.834268-31.685397 512.154014-31.685397zM710.825796 609.802746 439.673336 338.8855 313.173181 465.31498 222.749117 374.981602 439.673336 158.198278 801.248836 519.50723Z"  horiz-adv-x="1024" />

    
    <glyph glyph-name="yonghu" unicode="&#59268;" d="M512 768a224 224 0 0 0 127.808-408A352 352 0 0 0 864 32v-32h-64v32a288 288 0 0 1-576 0v-32H160v32c0 149.312 92.96 276.928 224.192 328.064A224 224 0 0 0 512 768z m0-64a160 160 0 1 1 0-320 160 160 0 0 1 0 320z"  horiz-adv-x="1024" />

    
    <glyph glyph-name="shuangjiantou" unicode="&#58890;" d="M807.28779183 253.74150281000004l187.73213635 130.25849719-187.73213635 130.25849719 0.07542472-103.85984403-590.12303532 1e-8 0 104.08611818L29.50804488 384.22627417l187.65671164-130.33392192 0 102.57762374L807.28779183 356.46997597999996z"  horiz-adv-x="1024" />

    
    <glyph glyph-name="meishi" unicode="&#58969;" d="M763.957429-5.911384c0-28.222785-18.878976-51.189869-45.156456-56.834426-4.281513-0.973164-8.56405-1.557472-13.235442-1.557472-32.894178 0-58.391898 25.497721-58.391898 58.391898 0 5.838985 17.906835 773.496689 19.464307 798.021246 0 21.410636 17.517979 38.927591 38.927591 38.927591 16.933671 0 31.336706-10.900258 36.592406-26.081005 1.557472-4.088108 2.335185-8.369621 2.335185-12.846586C746.633878 768.364041 763.957429-0.072399 763.957429-5.911384zM958.596408-5.911384c0-28.222785-18.878976-51.189869-45.156456-56.834426-4.281513-0.973164-8.56405-1.557472-13.235442-1.557472-32.894178 0-58.391898 25.497721-58.391898 58.391898 0 5.838985 17.906835 773.496689 19.464307 798.021246 0 21.410636 17.517979 38.927591 38.927591 38.927591 16.933671 0 31.336706-10.900258 36.592406-26.081005 1.557472-4.088108 2.335185-8.369621 2.335185-12.846586C941.27388 768.364041 958.596408-0.072399 958.596408-5.911384zM452.534654 550.742628c0 128.995933-85.154425 277.847076-194.638979 280.280498C145.977699 833.455525 63.255673 679.737538 63.255673 550.742628c0-112.098078 75.332732-168.628582 157.337421-183.113481-16.065907-151.930271-41.72224-349.486696-41.72224-352.908632 0-43.598984 35.424814-79.023798 79.023798-79.023798 10.121522 0 19.853164 1.947352 28.611641 5.450129 29.390377 11.288091 50.412157 40.095183 50.412157 73.572646 0 3.40454-25.293059 201.396893-41.188074 353.328187C381.822149 383.24787 452.534654 437.92926 452.534654 550.742628z"  horiz-adv-x="1024" />

    
    <glyph glyph-name="meishi1" unicode="&#58982;" d="M276.992 896C159.061333 896 63.146667 782.677333 63.146667 643.413333c0-109.397333 60.928-206.677333 147.626666-240.128-8.192-83.285333-37.717333-381.781333-37.717333-421.034666 0-57.344 46.592-104.106667 103.936-104.106667 63.146667 0 103.936 40.96 103.936 104.106667 0 47.786667-27.648 341.674667-35.157333 422.058666 85.333333 34.304 145.237333 130.730667 145.237333 239.104 0 139.264-95.914667 252.586667-214.016 252.586667z m36.181333-471.722667c-6.997333-2.048-1.024-12.288 0.853334-37.205333 14.165333-147.626667 29.525333-367.616 29.525333-412.330667 0-46.762667-40.96-58.197333-66.56-58.197333-31.573333 0-64.853333 26.624-64.853333 58.197333 0 38.229333 19.285333 298.325333 31.402666 418.474667 1.365333 13.994667 5.973333 28.16-2.730666 31.061333-81.578667 21.162667-140.8 111.445333-140.8 214.698667 0 121.002667 79.36 219.306667 176.981333 219.306667S453.973333 759.808 453.973333 638.976c0-103.253333-59.221333-193.536-140.8-214.698667zM941.056 866.816c-10.24 0-17.749333-4.949333-17.749333-19.456v-244.736c0-72.192-59.392-149.674667-129.536-165.376-14.165333-3.072-11.264-6.314667-11.264-17.749333 0-0.682667 0.341333-1.024 0.682666-1.536 12.8-133.461333 36.693333-394.410667 36.693334-435.712 0-42.666667-36.522667-60.074667-59.904-60.074667-28.842667 0-59.904 31.232-59.904 60.074667 0 34.986667 30.208 327.168 41.130666 436.906666 0.170667 0.512-0.170667 0.853333-0.170666 1.365334 0 9.898667 0.341333 13.482667-13.482667 16.384-70.997333 15.018667-131.242667 92.672-131.242667 165.717333V849.066667c0 14.506667-9.216 17.749333-17.749333 17.749333-9.216 0-17.749333-3.242667-17.749333-17.749333v-246.442667c0-89.6 58.368-160.426667 141.482666-188.586667-8.021333-79.701333-37.888-392.362667-37.888-431.957333 0-57.344 38.058667-95.573333 95.402667-95.573333 63.146667 0 95.402667 32.426667 95.402667 95.573333 0 48.128-28.16 355.669333-35.498667 432.64 81.749333 28.842667 138.922667 99.157333 138.922667 187.562667V847.36c0.170667 14.506667-8.021333 19.456-17.578667 19.456zM823.978667 563.370667c-9.898667 0-17.92 8.021333-17.92 17.92V850.261333c0 9.898667 8.021333 17.92 17.92 17.92s17.92-8.021333 17.92-17.92v-268.8c0-9.898667-8.021333-18.090667-17.92-18.090666zM694.442667 563.370667c-9.898667 0-17.92 8.021333-17.92 17.92V850.261333c0 9.898667 8.021333 17.92 17.92 17.92s17.92-8.021333 17.92-17.92v-268.8c0-9.898667-8.021333-18.090667-17.92-18.090666z"  horiz-adv-x="1024" />

    
    <glyph glyph-name="hongqizihuodong" unicode="&#59038;" d="M149.390222 768h64.056889v-704.056889c0-35.384889-28.672-64.056889-64.056889-64.056889S85.333333 28.672 85.333333 63.943111V703.943111c0 35.384889 28.672 64.056889 64.056889 64.056889zM245.077333 768h619.861334c26.851556 0 48.583111-19.114667 48.583111-42.666667 0-10.581333-4.437333-20.707556-12.515556-28.558222L755.370667 554.666667 901.12 412.558222c17.976889-17.521778 16.384-44.487111-3.640889-60.302222-8.874667-7.054222-20.48-10.922667-32.540444-10.922667H245.077333v426.666667z"  horiz-adv-x="1024" />

    
    <glyph glyph-name="baoxian1" unicode="&#59098;" d="M505.929143 896c18.797714 0 37.595429-6.436571 52.443428-19.382857 1.682286-1.462857 165.010286-138.971429 338.651429-138.971429 43.154286 0 78.262857-33.572571 78.262857-74.898285v-226.742858c0-205.312-73.435429-327.972571-371.346286-523.702857-13.750857-8.996571-56.100571-40.301714-98.011428-40.301714-41.984 0-84.845714 31.744-98.011429 40.374857C105.837714 109.275429 36.571429 230.692571 36.571429 435.931429v226.742857c0 41.398857 35.108571 74.898286 78.262857 74.898285C289.28 737.645714 450.998857 874.642286 453.485714 876.690286 468.48 889.563429 487.131429 896 506.002286 896zM703.634286 568.027429L458.605714 317.001143 317.952 418.011429l-50.761143-70.656 170.861714-122.88 5.412572-3.291429c16.822857-8.704 37.595429-5.632 51.2 8.265143l271.36 277.723428-62.317714 60.854858z"  horiz-adv-x="1024" />

    
    <glyph glyph-name="xiaojiantou" unicode="&#58908;" d="M511.6850000000001 471.59299999999985c45.215999999999994-1.4210854715202004e-14 90.44299999999998 0.20599999999996044 135.66200000000003-0.06100000000006389 32.468-0.1930000000000156 44.38799999999998-19.924000000000014 28.282999999999973-47.86700000000001-45.08600000000003-78.20399999999995-90.53700000000009-156.20699999999988-136.23500000000007-234.04999999999993-15.820000000000014-26.95299999999999-38.737000000000016-27.320999999999984-54.395999999999994-0.7139999999999738-46.13799999999998 78.38800000000002-91.91699999999992 157.01200000000009-137.39899999999986 235.79800000000006-15.083999999999989 26.132000000000005-2.425999999999984 46.63199999999999 28.41500000000002 46.82499999999998 45.218999999999994 0.2959999999999816 90.451 0.06899999999995288 135.67000000000002 0.06899999999994577z"  horiz-adv-x="1024" />

    
    <glyph glyph-name="sanjiaoxing_xiao" unicode="&#59170;" d="M477.866667 139.093333L214.698667 441.344a40.618667 40.618667 0 0 0 34.133333 66.389333h525.824a40.618667 40.618667 0 0 0 34.133333-66.389333L546.133333 139.093333a46.762667 46.762667 0 0 0-69.290666 0"  horiz-adv-x="1024" />

    
    <glyph glyph-name="xinxiduanxinxiaoxitixingyoujiansixinyouxiang1" unicode="&#58910;" d="M1024 700.8s-3.2 0 0 0l-105.6-70.4C640 441.6 499.2 345.6 499.2 348.8l-422.4 288-76.8 48V704c0 35.2 28.8 64 64 64h896c35.2 0 64-28.8 64-67.2 0 3.2 0 3.2 0 0z m0-76.8v-560c0-35.2-28.8-64-64-64H64c-35.2 0-64 28.8-64 64V608l38.4-25.6 422.4-288c22.4-16 51.2-16 73.6 0L953.6 576c3.2 3.2 25.6 19.2 70.4 48z"  horiz-adv-x="1024" />

    
    <glyph glyph-name="xinxiduanxinxiaoxitixingyoujiansixinyouxiang" unicode="&#59007;" d="M910.222 621.511v49.522H113.778v-54.926l386.39-263.31c0.71-0.484 1.507-0.484 2.332 0.056L907.093 619.72a28.729 28.729 0 0 0 3.13 1.764z m0-67.897L534.102 305.58c-19.912-13.483-46.08-13.37-65.963 0.199L113.778 547.27v-445.099h796.444V553.614zM113.778 727.98h796.444a56.889 56.889 0 0 0 56.89-56.89v-568.888a56.889 56.889 0 0 0-56.89-56.889H113.778a56.889 56.889 0 0 0-56.89 56.889V671.09a56.889 56.889 0 0 0 56.89 56.889z"  horiz-adv-x="1024" />

    
    <glyph glyph-name="weixin1" unicode="&#59086;" d="M558.944 216.736c0-156.16 153.984-282.88 342.944-282.88 45.856 0 90.624 7.68 129.92 20.8 10.944-5.472 89.6-73.184 107.04-61.184 12.032 9.824-28.384 83.008-31.68 96.096 84.096 51.328 138.72 133.248 138.72 226.08 0 156.16-153.984 282.848-342.912 282.848-188.928 0-344-125.6-344-281.76z m415.008 100.48a48.96 48.96 0 0 0 49.152 49.12 48.96 48.96 0 0 0 49.12-49.12 48.96 48.96 0 0 0-49.12-49.152c-27.296-1.088-49.152 21.856-49.152 49.152z m-241.344 0a48.96 48.96 0 0 0 49.152 49.12 48.96 48.96 0 0 0 49.12-49.12 48.96 48.96 0 0 0-49.12-49.152 47.616 47.616 0 0 0-49.152 49.152zM528.384 218.912c0 170.368 168.192 307.968 374.592 307.968 10.912 0 21.824 0 31.68-1.088C911.68 714.72 718.4 861.056 483.584 861.056 233.504 861.056 30.4 693.984 30.4 487.584c0-122.336 72.064-231.52 182.368-299.232-4.384-16.384-56.8-113.6-41.504-126.72 22.944-15.264 126.688 74.304 140.896 80.832 52.416-18.56 110.272-28.384 171.456-28.384 21.824 0 43.68 1.088 65.504 4.352a243.584 243.584 0 0 0-20.736 100.48z m113.6 466.336c36 0 65.504-29.504 65.504-65.536 1.088-36.032-28.384-65.536-65.536-65.536a65.728 65.728 0 0 0-65.536 65.536c0 36.032 29.504 65.536 65.536 65.536z m-317.824-131.072a65.728 65.728 0 0 0-65.536 65.536c0 36.032 29.504 65.536 65.536 65.536s65.536-29.504 65.536-65.536a65.728 65.728 0 0 0-65.536-65.536z"  horiz-adv-x="1280" />

    
    <glyph glyph-name="diqiu" unicode="&#58957;" d="M511.8-31.2c-231.4 0-419.7 192.9-419.7 430.1 0 237.3 188.3 430.3 419.7 430.3 231.5 0 419.9-193 419.9-430.3-0.1-237.2-188.4-430.1-419.9-430.1z m0 818.3c-208.2 0-377.6-174.2-377.6-388.3 0-214 169.4-388 377.6-388 208.3 0 377.8 174.1 377.8 388 0 214.1-169.5 388.3-377.8 388.3zM511.8-31.2c-137.7 0-249.6 192.9-249.6 430.1 0 237.3 112 430.3 249.6 430.3 68.9 0 132.8-46.5 179.9-130.9 45-80.5 69.7-186.8 69.7-299.4 0-112.5-24.8-218.8-69.7-299.2-47.1-84.4-111-130.9-179.9-130.9z m0 818.3c-112.5 0-207.6-177.8-207.6-388.3 0-210.3 95.1-388 207.6-388s207.6 177.7 207.6 388c0 210.5-95.1 388.3-207.6 388.3zM512.4-26.8c-11.6 0-21 9.4-21 21V802.5c0 11.6 9.4 21 21 21s21-9.4 21-21v-808.3c0-11.6-9.4-21-21-21zM511.8 559.6c-121.9 0-238.3 29.7-319.4 81.5-9.8 6.2-12.6 19.2-6.4 29 6.2 9.8 19.2 12.7 29 6.4 74.5-47.6 182.7-74.9 296.8-74.9 114.1 0 222.3 27.3 296.8 74.9 9.8 6.3 22.8 3.4 29-6.4 6.2-9.8 3.4-22.8-6.4-29-81.1-51.8-197.5-81.5-319.4-81.5z m390-182.2H127.4c-11.6 0-21 9.4-21 21s9.4 21 21 21h774.4c11.6 0 21-9.4 21-21s-9.4-21-21-21z m-82-244.7c-3.9 0-7.8 1.1-11.3 3.3-74.3 47.4-182.5 74.6-296.8 74.6-114.3 0-222.5-27.2-296.8-74.6-9.8-6.3-22.8-3.4-29 6.4-6.2 9.8-3.4 22.8 6.4 29 80.9 51.6 197.3 81.3 319.4 81.3 122.1 0 238.5-29.6 319.4-81.3 9.8-6.2 12.6-19.2 6.4-29-4-6.3-10.7-9.7-17.7-9.7z"  horiz-adv-x="1024" />

    
    <glyph glyph-name="fangdajing" unicode="&#58970;" d="M750.501647 120.651294c173.206588 121.856 228.141176 358.580706 120.289882 545.430588-73.758118 127.759059-211.335529 207.119059-358.972235 207.119059-72.312471 0-143.781647-19.215059-206.727529-55.536941C209.317647 762.368 140.769882 673.069176 112.128 566.241882c-28.611765-106.857412-13.914353-218.443294 41.381647-314.247529 73.758118-127.759059 211.305412-207.119059 358.942118-207.119059 0 0 0 0 0 0 51.410824 0 102.369882 9.878588 150.196706 28.581647l88.726588-153.690353c13.793882-23.883294 44.272941-32.075294 68.096-18.311529 24.003765 13.854118 31.984941 44.272941 18.191059 68.126118L750.501647 120.651294zM512.481882 150.287059c-110.110118 0-212.690824 59.181176-267.655529 154.413176-41.231059 71.408941-52.193882 154.593882-30.840471 234.224941C235.309176 618.586353 286.388706 685.176471 357.797647 726.377412c46.953412 27.105882 100.201412 41.411765 154.021647 41.411765 110.110118 0 212.690824-59.151059 267.685647-154.413176 85.112471-147.425882 34.424471-336.564706-113.001412-421.677176C619.580235 164.623059 566.302118 150.287059 512.481882 150.287059z"  horiz-adv-x="1024" />

    
    <glyph glyph-name="gw" unicode="&#58891;" d="M969.334725-127.836754C969.171478-127.836754 969.023072-127.821913 968.830145-127.836754L54.591072-127.836754C47.675362-127.836754 41.071304-124.957681 36.366841-119.911884 31.647536-114.836406 29.243362-108.054261 29.718261-101.153391L79.582609 673.079652C80.487884 686.183884 91.351188 696.349681 104.45542 696.349681L314.61287 696.349681 314.61287 698.397681C314.61287 807.283014 403.018203 895.836754 511.710609 895.836754 620.388174 895.836754 708.808348 807.283014 708.808348 698.397681 708.808348 697.670493 708.452174 697.062029 708.392812 696.349681L918.965797 696.349681C932.070029 696.349681 942.933333 686.183884 943.838609 673.079652L993.361623-96.211478C993.955246-98.333681 994.266899-100.544928 994.266899-102.860058 994.266899-116.676638 983.106783-127.836754 969.334725-127.836754ZM658.929159 698.397681C658.929159 779.724058 592.88858 845.898203 511.710609 845.898203 430.517797 845.898203 364.477217 779.724058 364.477217 698.397681L364.477217 696.349681 659.344696 696.349681C659.285333 697.062029 658.929159 697.670493 658.929159 698.397681ZM895.695768 646.41113 708.808348 646.41113 708.808348 589.972406C720.858899 581.795246 729.273507 568.646493 729.273507 552.96 729.273507 527.86458 708.956754 507.503304 683.876174 507.503304 658.795594 507.503304 638.464 527.86458 638.464 552.96 638.464 568.646493 646.878609 581.795246 658.929159 589.972406L658.929159 646.41113 364.477217 646.41113 364.477217 589.972406C376.527768 581.795246 384.942377 568.646493 384.942377 552.96 384.942377 527.86458 364.625623 507.503304 339.545043 507.503304 314.464464 507.503304 294.14771 527.86458 294.14771 552.96 294.14771 568.646493 302.562319 581.795246 314.61287 589.972406L314.61287 646.41113 127.74029 646.41113 81.304116 174.406493 942.117101 174.406493 895.695768 646.41113Z"  horiz-adv-x="1024" />

    
    <glyph glyph-name="feiji" unicode="&#58985;" d="M910.219025 330.368755l-42.176741-42.176741-13.16165 72.739134 57.601799 57.598601a22.378321 22.378321 0 1 1-31.642946 31.646143l-35.658256-35.655059-24.459505 135.171453 125.197115 125.200312c19.056739 19.545865 29.363554 45.344872 29.011895 72.64003-0.345266 27.295158-11.301052 52.822428-30.846917 71.87597-19.194206 18.71467-44.529662 29.018289-71.332497 29.018288-27.790678 0-53.784696-10.958983-72.985295-30.655102l-132.086442-132.086442-125.420898 22.698012 40.185071 40.18507a22.378321 22.378321 0 1 1-31.642946 31.646143l-62.135007-62.13181-72.739134 13.16165 46.70995 46.70995a22.378321 22.378321 0 1 1-31.642946 31.646143l-65.881777-65.881778a22.41029 22.41029 0 0 1-2.381693-2.84844l-132.223908 23.928819a22.365533 22.365533 0 0 1-19.808011-6.195598L157.95578 705.873785a22.384715 22.384715 0 0 1 5.684094-35.773345l323.833486-164.611732L299.028716 317.040867 125.638288 289.029603a22.375124 22.375124 0 0 1-12.004371-6.022966l-57.400393-55.626112a22.375124 22.375124 0 0 1 6.796616-36.65569l180.800849-77.06774 75.734632-179.426181a22.381518 22.381518 0 0 1 36.441497-7.1227l56.511654 56.514851a22.371927 22.371927 0 0 1 6.333065 12.698099l24.868709 176.373138 192.277731 192.277731L808.899579 24.843932a22.36873 22.36873 0 0 1 19.951871-12.237744 22.394306 22.394306 0 0 1 15.82467 6.553651l52.729718 52.732915a22.381518 22.381518 0 0 1 6.195598 19.808011l-25.859748 142.891973 64.126677 64.129874a22.378321 22.378321 0 0 1-0.003197 31.646143 22.371927 22.371927 0 0 1-31.646143 0zM831.613574 786.330243a56.987993 56.987993 0 0 0 41.134551 17.343198c15.063807 0 29.302813-5.792788 40.089164-16.310599a57.064719 57.064719 0 0 0 17.343199-40.399263c0.195011-15.341937-5.597777-29.839893-16.109195-40.626243L410.581449 202.850688l-116.165864-37.745833 35.172327 119.196528L831.613574 786.330243zM211.407999 696.027324l22.650057 22.650057 395.105242-71.498735-108.400587-108.403784-309.354712 157.252462z m-71.684156-450.060005l138.489837 22.371927-31.633355-107.201748L111.571915 218.688146l28.151928 27.279173z m208.14396-263.696544L291.023671 116.946708l104.423639 33.928731-19.865555-140.893909-27.713952-27.710755z m486.961856 90.338085l-165.542031 325.655721 112.91781 112.921008 26.59184-146.95204 0.00959-0.051151 48.663258-268.92348-22.640467-22.650058z"  horiz-adv-x="1024" />

    
    <glyph glyph-name="jiudian" unicode="&#58984;" d="M817.23904 881.49504H491.15648c-67.04128 0-121.57952-54.53824-121.57952-121.57952v-304.70144h-162.816c-67.04128 0-121.58464-54.53824-121.58464-121.57952v-447.1296h70.53824v447.1296c0 28.13952 22.89152 51.05152 51.04128 51.05152h382.96064c15.91296 0 33.21344-6.20544 46.2848-16.59392 8.73472-6.9376 19.14368-18.56512 19.14368-34.4576v-447.1296h70.53824v447.1296c0 34.36032-16.26624 66.20672-45.79328 89.6768-25.51296 20.27008-58.37824 31.90272-90.17344 31.90272H440.1152V759.91552c0 28.13952 22.89664 51.04128 51.04128 51.04128h326.08256c28.14976 0 51.04128-22.90176 51.04128-51.04128v-873.41056h70.53824V759.91552c0 67.04128-54.53824 121.57952-121.57952 121.57952z m0 0M654.20288 741.67296h141.70624v-71.92064h-141.70624V741.67296z m0 0M653.11744 597.2736h142.80704v-71.93088h-142.80704V597.2736z m0 0M442.91584 313.28768h139.776v-71.93088h-139.776v71.93088z m0 0M440.64768 170.74688h142.04928V98.816H440.64768v71.93088z m0 0M229.61152 313.28768h141.47584v-71.93088H229.61152v71.93088z m0 0M229.61152 170.74688h141.47584V98.816H229.61152v71.93088z m0 0"  horiz-adv-x="1024" />

    
    <glyph glyph-name="travel" unicode="&#58881;" d="M606.031 689.978c278.685-114.315 278.685-329.516 278.685-329.516-139.335 168.112-371.584 141.22-371.584 141.22-13.273-262.272 278.696-564.907 278.696-564.907h-185.216c-24.543 120.532-86.473 217.135-166.175 259.344-35.653 160.16-20.205 305.563-20.205 305.563-179.998-70.617-232.25-235.373-232.25-235.373-40.647 247.148 185.801 329.534 185.801 329.534-150.955 35.306-232.25-141.239-232.25-141.239-29.032 270.688 232.25 235.373 232.25 235.373l46.449 141.246 92.9-94.156c212.332 147.936 325.135-47.091 325.135-47.091-99.53 47.092-232.236 0.001-232.236 0.001zM350.564 172.152c94.536 0 173.483-99.579 199.308-235.377h-398.628c25.825 135.798 104.772 235.377 199.32 235.377z"  horiz-adv-x="1024" />

    
    <glyph glyph-name="baoxian" unicode="&#58921;" d="M510.976512 382.72064m-510.72064 0a510.72064 510.72064 0 1 1 1021.441279 0 510.72064 510.72064 0 1 1-1021.441279 0ZM293.997001 845.337331l-245.637181-245.637181c-16.375812-34.286857-28.657671-71.132434-36.845577-108.489755L402.998501 882.182909c-38.38081-8.187906-74.714643-20.981509-109.0015-36.845578zM510.976512 893.441279c-8.187906 0-16.375812 0-24.563718-0.511744L0.767616 407.284358c-0.511744-8.187906-0.511744-16.375812-0.511744-24.563718 0-15.864068 0.511744-31.216392 2.046977-46.568716L557.033483 891.394303c-15.352324 1.535232-30.704648 2.046977-46.056971 2.046976zM612.813593 883.206397L10.490755 280.883558c4.093953-19.446277 9.211394-38.38081 15.352323-57.315342L670.128936 867.854073c-18.934533 6.14093-37.869065 11.258371-57.315343 15.352324zM721.815092 847.384308L46.312844 171.882059c7.676162-16.375812 15.864068-32.23988 24.563718-47.592204L769.407296 822.82059c-15.352324 9.211394-31.216392 17.3993-47.592204 24.563718zM809.835082 796.721639L96.975512 83.862069c10.234883-13.817091 20.981509-27.122439 32.23988-39.916042L849.751124 764.993503c-12.793603 11.258371-26.098951 22.004998-39.916042 31.728136zM886.596702 728.65967l-721.559221-721.55922c12.793603-11.770115 25.587206-22.516742 39.404298-32.751624L919.348326 689.255372c-10.234883 13.817091-21.493253 27.122439-32.751624 39.404298zM945.95902 649.851074L243.846077-52.261869c15.352324-9.211394 30.704648-17.911044 47.08046-25.587206l680.61969 681.131434c-8.187906 15.864068-16.375812 31.216392-25.587207 46.568715zM992.527736 552.107946L341.589205-98.830585c18.422789-6.652674 36.845577-11.770115 56.291854-16.375812L1008.391804 496.327836c-4.093953 18.934533-9.723138 37.869065-15.864068 55.78011zM1021.185407 382.72064c0 20.469765-1.023488 40.93953-3.582209 60.897551L450.078961-123.906047c19.958021-2.558721 40.427786-3.582209 60.897551-3.582209h7.676162l502.532733 502.532734v7.676162zM1013.509245 295.724138l-416.047976-416.047976c34.798601 6.14093 68.573713 15.352324 100.301849 28.145927l287.6002 287.6002c12.793603 31.728136 22.516742 65.503248 28.145927 100.301849zM510.976512 382.72064m-450.846577 0a450.846577 450.846577 0 1 1 901.693153 0 450.846577 450.846577 0 1 1-901.693153 0ZM290.926537 541.873063l28.657671-215.444277 130.494753-164.78161 60.897551-47.592203 131.006496 77.273363 56.291855 117.189405s-4.093953 117.189405 0 125.377311-156.081959 197.021489-156.081959 197.02149h-47.592204L290.926537 541.873063zM508.417791 664.691654L271.48026 559.272364v-158.128936c0-146.358821 101.325337-282.994503 236.937531-316.257871 136.123938 33.263368 236.937531 169.89905 236.937531 316.257871V559.272364L508.417791 664.691654z m0-289.647176h184.227886c-13.817091-108.489755-86.484758-205.209395-184.227886-235.402299v235.402299l-184.227886-0.511744V524.985507l184.227886 81.879061v-231.82009z"  horiz-adv-x="1024" />

    
    <glyph glyph-name="chujingyou" unicode="&#58914;" d="M512 384m-512 0a512 512 0 1 1 1024 0 512 512 0 1 1-1024 0ZM512.727579 680.421053A296.421053 296.421053 0 1 1 808.421053 384 288.336842 288.336842 0 0 1 512.727579 680.421053z m106.145684-119.376842l10.590316 27.486315a253.574737 253.574737 0 0 1 5.793684 26.947369 88.522105 88.522105 0 0 0 43.62779-30.450527c-11.910737-44.193684-39.693474-41.498947-39.693474-41.498947s-22.986105 0.538947-20.318316 17.51579z m-51.2 0.538947a27.863579 27.863579 0 0 0 15.872 10.509474c6.602105 2.694737 0-11.856842-1.347368-19.671579a18.674526 18.674526 0 0 1 6.629052-21.288421c9.269895-9.162105-17.192421-2.425263-23.794526 2.694736a37.241263 37.241263 0 0 0 2.694737 27.75579z m-119.888842-257.347369a316.928 316.928 0 0 0-19.105684-33.145263 47.077053 47.077053 0 0 0-14.578526-19.671579 44.463158 44.463158 0 0 1-10.590316-14.551579l1.697684-22.635789s6.602105-14.282105 10.590316-21.018947a120.616421 120.616421 0 0 0-8.084211-42.307369 30.746947 30.746947 0 0 0-26.408421 15.898948 35.759158 35.759158 0 0 0-8.353684 22.366315 75.210105 75.210105 0 0 1-22.528 33.145263 53.894737 53.894737 0 0 0-9.269895 22.366316 33.926737 33.926737 0 0 1-14.551579 15.898948 147.024842 147.024842 0 0 0-30.423579 17.246315 135.329684 135.329684 0 0 0-9.269894 36.917895 144.518737 144.518737 0 0 0 3.961263 32.87579s10.590316 8.084211 3.961263 14.551579a48.101053 48.101053 0 0 0-7.922526 23.713684l-11.910737 13.20421a82.351158 82.351158 0 0 0-10.617263 19.941053 38.292211 38.292211 0 0 0 1.347368 17.246316 168.555789 168.555789 0 0 1-2.694737 25.061052c49.421474 120.993684 132.392421 149.018947 132.392421 149.018948l6.602105-27.75579a52.035368 52.035368 0 0 0-22.501052-1.077894 46.538105 46.538105 0 0 1-11.910737 2.425263l-10.590316-14.551579a134.278737 134.278737 0 0 1-5.389473-14.282106 23.956211 23.956211 0 0 1 2.694736-13.20421 24.683789 24.683789 0 0 1 18.53979 3.772632 11.937684 11.937684 0 0 1-2.694737 8.08421l-2.694737 9.162105a87.255579 87.255579 0 0 0 43.681684 4.042106c31.744-2.694737 19.860211-25.061053 33.118316-30.450527s-10.617263-23.713684-15.898947-34.223158-13.258105 13.204211-13.258105 13.204211 7.949474 9.162105-5.389474 11.856842-15.898947-14.551579-9.269895-13.204211 7.922526-8.084211 6.629053-14.551578a95.932632 95.932632 0 0 0-8.084211-29.103158 38.426947 38.426947 0 0 0-31.744-14.551579s3.934316-6.467368 7.949474-14.551579a82.027789 82.027789 0 0 0-1.320421-31.528421c0-5.389474-15.898947 9.162105-18.53979 22.366315s-10.590316 8.353684-15.872 7.006316a27.162947 27.162947 0 0 0-25.141894 1.347369c-2.694737 6.467368-26.489263-12.395789-33.118316-16.168421s-3.961263-14.551579 6.629052-9.431579 19.860211 1.347368 17.219369-9.162106-13.258105-4.042105-11.937684-10.509473 11.937684-13.204211 14.578526-22.63579 27.782737 4.042105 35.732211 8.084211 30.450526 7.814737 33.118315-2.694737 32.336842-19.671579 41.552842-22.366316a83.240421 83.240421 0 0 0 38.426948-14.551579c10.536421-10.509474-8.084211-30.450526-9.269895-36.917895z m55.026526 308.816843c-1.320421-13.204211-24.252632-32.875789-21.557894-38.265264s1.751579-46.08-16.788211-26.408421a119.484632 119.484632 0 0 0-35.705263 60.901053c0.242526 2.425263 0.565895 6.736842 0.889263 11.317895a109.864421 109.864421 0 0 0 94.854737 14.551579c-7.949474-13.204211-20.291368-8.892632-21.557895-22.096842z m30.423579-77.877895c-3.988211 6.736842 9.269895 10.509474 9.269895 10.509474 18.539789-3.772632 11.452632-16.976842 10.159158-22.366316s-15.440842 5.389474-19.429053 11.856842z m209.165474-157.642105a32.336842 32.336842 0 0 1 24.683789-14.012632 284.240842 284.240842 0 0 0-101.941894-181.355789 22.150737 22.150737 0 0 0-7.006316 26.408421l8.488421 21.288421 2.209684 35.570526a25.034105 25.034105 0 0 1-39.855158 19.402105c-37.968842-9.701053-22.069895-14.282105-60.416-16.976842s-23.875368 74.644211-23.875368 74.644211a287.312842 287.312842 0 0 0 3.530105 48.235789c0 24.791579 81.219368 10.778947 81.219369 10.778947 52.951579-35.301053 60.011789 7.814737 60.011789 7.814737l38.831158 14.012632 3.530105 17.785263-21.153684 24.522105-31.797895 14.012632s-14.551579-9.162105 0-31.528421c0 0-4.850526-25.6-16.78821-19.132632l-32.633263 40.151579a93.399579 93.399579 0 0 0-28.698948-29.372631 66.613895 66.613895 0 0 0-47.642947 0.269473s-9.701053 29.911579 8.838737 39.343158l27.351579 0.269474a57.694316 57.694316 0 0 0-2.209685 29.642105c3.530105 14.012632 11.479579 1.616842 25.6 12.126316s23.821474-20.48 45.002106-16.976842 10.590316 7.006316 24.710737 14.012631 24.710737-14.012632 24.710736-14.012631l28.213895-3.503158a379.203368 379.203368 0 0 1-24.549053 54.703158 4.284632 4.284632 0 0 1-1.913263-0.269474c0.323368 1.077895 0.997053 1.077895 1.913263 0.269474 16.384-2.964211 73.216-99.974737 56.454737-158.181053-5.820632 2.694737-10.778947 4.850526-10.778947 4.850527H721.111579l21.207579-24.791579z"  horiz-adv-x="1024" />

    
    <glyph glyph-name="biaoqing_zuanshi" unicode="&#58958;" d="M513.823 491.634l-0.022-0.023h0.033l-0.010 0.023zM513.044 36.478l226.003 230.316h-114.842l-111.16-230.316zM402.278 602.648l-114.48 113.825h-0.147l-219.658-224.84h225.382l108.903 111.015zM733.651 491.634h226.003l-226.070 224.772-109.774-112.358 109.84-112.414zM959.676 491.611l-6.48-6.615 6.491 6.604-0.010 0.010zM67.97 491.6l11.21-11.459-11.199 11.47-0.010-0.011zM733.65 716.473h-0.146l0.080-0.067 0.067 0.067zM513.97 716.473h-226.172l114.48-113.825 111.692 113.825zM733.583 716.406l-0.079 0.067h-219.534l109.84-112.425 109.773 112.358zM513.97 491.634l-111.692 111.014-108.903-111.014h220.595zM513.97 491.634h219.68l-109.84 112.414-109.84-112.414zM513.97 491.634l109.84 112.414-109.84 112.425-111.692-113.825 111.692-111.014zM287.708 266.985h114.072l-36.892 76.449-77.181-76.449zM661.741 344.574l-37.536-77.78h114.842l-77.306 77.78zM67.97 491.634l0.011-0.023 0.012 0.023h-0.023zM513.8 491.611l0.023 0.023h-220.448l220.426-0.023zM401.781 266.985h-114.073l0.237-0.248 224.998-230.055-111.163 230.303zM364.89 343.434l-71.515 148.2-225.394-0.023 11.199-11.47 208.64-213.336 77.070 76.629zM287.798 266.794h0.022v0.010l-0.022-0.010zM959.688 491.634h-0.034l0.022-0.023 0.011 0.023zM959.654 491.634h-226.004l-71.887-147.004 77.284-77.836 220.607 224.84zM513.834 491.61h0.113l0.023 0.024h-0.147l0.011-0.023zM513.981 491.61l218.722 0.024-218.722-0.023zM513.981 491.61l-0.011 0.024-0.023-0.023h0.034zM513.8 491.61l-0.756-0.755v-0.147l0.858 0.858-0.068 0.045h-0.033zM513.044 491.61v-0.755l0.757 0.756h-0.757zM513.902 491.566l0.045 0.045h-0.113l0.068-0.045zM661.74 344.574l71.91 147.060-219.816-0.023 147.907-147.037zM513.947 491.61l-0.045-0.044 147.861-146.936-147.816 146.98zM512.943 266.794l-111.162 0.191 111.162-230.507 111.15 230.316h-111.15zM464.92 442.877l48.124 47.83v0.148l-48.124-47.978zM513.834 491.61l-0.846-0.857-48.068-47.876-100.030-99.443 36.891-76.449 111.263-1.41 111.161 1.219 37.536 77.78-147.907 147.036zM513.834 491.61l-222.774 0.024 73.931-148.392 148.843 148.369zM347.245 564.447s-4.132-58.612-88.053-80.501c83.865-21.89 88.053-80.512 88.053-80.512 11.74 75.217 87.985 80.523 87.985 80.523s-76.245 5.272-87.985 80.49zM626.475 392.326s-1.378-19.541-29.351-26.834c27.94-7.293 29.35-26.834 29.35-26.834 3.906 25.073 29.352 26.834 29.352 26.834s-25.446 1.761-29.351 26.834z"  horiz-adv-x="1024" />

    
    <glyph glyph-name="shanglv" unicode="&#59115;" d="M691.2-40.96v-61.44a25.6 25.6 0 1 0-51.2 0v61.44H384v-61.44a25.6 25.6 0 1 0-51.2 0v61.44H241.6C178.752-40.64 128 7.04 128 65.92V636.352c0 58.816 50.88 106.432 113.6 106.432H332.8V832a64 64 0 0 0 64 64h230.4a64 64 0 0 0 64-64v-89.28h91.2c30.144 0 59.008-11.2 80.32-31.168 21.312-19.968 33.28-47.04 33.28-75.264v-570.304c0-58.88-50.752-106.688-113.6-106.88H691.2zM384 742.784h256V847.232H384v-104.512z m-25.6-195.008a25.6 25.6 0 0 1-25.6-25.6v-338.88a25.6 25.6 0 1 1 51.2 0V522.112a25.6 25.6 0 0 1-25.6 25.6z m153.6 0a25.6 25.6 0 0 1-25.6-25.6v-338.88a25.6 25.6 0 1 1 51.2 0V522.112a25.6 25.6 0 0 1-25.6 25.6z m153.6 0a25.6 25.6 0 0 1-25.6-25.6v-338.88a25.6 25.6 0 1 1 51.2 0V522.112a25.6 25.6 0 0 1-25.6 25.6z"  horiz-adv-x="1024" />

    
    <glyph glyph-name="jiesongji" unicode="&#58882;" d="M1268.172385 302.61615099999995a92.770624 92.770624 0 0 0-16.895312-34.507396 113.157634 113.157634 0 0 0-12.082708-13.618646c-1.535937-1.433542-2.969479-2.662292-4.198229-3.788645-0.204792-0.204792-0.409583-0.307187-0.614375-0.51198 3.583854-12.082708 6.860521-24.984583 9.932395-39.115208a20.202698 20.202698 0 0 0 0.409584-3.583854c0.716771-20.171979 0-241.03979 0-250.460206a17.93975 17.93975 0 0 0-0.409584-4.095833v-0.102396a89.872822 89.872822 0 0 0-175.506456-16.588125 1.843125 1.843125 0 0 1-1.74073 1.331146l-360.43333 2.047917a1.873844 1.873844 0 0 1-1.843125-1.433542 89.831864 89.831864 0 0 0-176.428019 20.171979c0 0.819167-0.102396 1.638333-0.102396 2.4575 0 1.126354-0.409583 108.437187 0 234.38406a13.721042 13.721042 0 0 0 0.102396 2.047917 315.532758 315.532758 0 0 0 9.215625 49.559583 1.802167 1.802167 0 0 1-0.716771 1.945521 0.542698 0.542698 0 0 0-0.307188 0.204791c-0.409583 0.409583-1.126354 0.921562-1.945521 1.638334-1.22875 1.126354-2.662292 2.355104-4.095833 3.788646a113.659374 113.659374 0 0 0-12.185104 13.618645 91.009416 91.009416 0 0 0-16.792916 34.507396 70.448333 70.448333 0 0 0 5.836562 48.63802 65.656208 65.656208 0 0 0 23.653437 26.110938 78.076822 78.076822 0 0 0 24.063021 9.932395 114.427343 114.427343 0 0 0 44.849375 1.331146c0.204792 0 0.409583-0.102396 0.614375-0.102396 3.788646 6.962917 8.498854 15.359375 14.642604 26.520521 6.450937 11.673125 14.437812 26.213333 24.882187 45.156562a5.713687 5.713687 0 0 1 0.511979 0.819167c11.161146 17.919271 54.78177 73.520208 126.151666 74.339374l228.342706 0.511979s59.799166 0 90.005937-25.394166c19.045625-14.233021 45.668541-48.842812 69.629166-90.108333a2.242469 2.242469 0 0 0 0.307187-0.511979c5.529375-10.444375 10.751562-19.967187 15.768959-29.285208l0.204791-0.409583a1.873844 1.873844 0 0 1 1.843125-0.921563 114.601416 114.601416 0 0 0 41.675104-1.740729 85.869145 85.869145 0 0 0 24.063021-9.932396 65.533333 65.533333 0 0 0 23.551041-26.110937 71.410854 71.410854 0 0 0 6.041354-48.740416zM577.205308 349.20625500000006a63.311343 63.311343 0 0 1-12.697083-1.638334 37.548552 37.548552 0 0 1-11.877917-4.812604 24.871948 24.871948 0 0 1-8.908437-9.932396c-6.553333-13.004271-3.481458-26.213333 7.065312-40.139166a1.843125 1.843125 0 0 1 3.174271 0.409583c1.843125 4.095833 3.583854 7.884479 5.119791 11.468334 1.740729 4.095833 3.276667 7.474896 4.607813 10.54677a3.420021 3.420021 0 0 0 0.511979 1.22875l8.703646 17.714479c2.252708 4.710208 4.300625 8.806042 6.041354 12.492292a1.843125 1.843125 0 0 1-1.740729 2.662292z m557.545308 21.912708c-5.017396 9.318021-10.034792 18.738437-15.666563 29.182812-23.551041 40.855937-46.999687 68.912395-58.570416 77.616041-17.612083 13.209062-37.272083 14.745-56.317708 16.280937-4.300625 0.307187-165.881249 0.409583-236.022394-0.511979h-0.71677a113.178114 113.178114 0 0 1-91.849062-53.55302c-10.341979-18.738437-18.43125-33.278646-24.677396-44.746979-24.779791-44.849375-24.779791-44.849375-41.26552-79.049583l-8.498854-17.304895c-1.535937-3.481458-3.174271-7.270104-4.915-11.161146a291.16255 291.16255 0 0 1-27.339688-93.896979v-0.204791c-0.307187-116.014478 0-215.748019 0-230.902602a11.130427 11.130427 0 0 0 0.102396-1.843125 49.006645 49.006645 0 0 1 97.992812-0.51198 20.39725 20.39725 0 0 0 20.376771 19.864792h0.102395l398.114997-2.150313a20.479166 20.479166 0 0 0 20.274375-19.352812 48.996406 48.996406 0 0 1 97.78802-0.511979c0 0.409583 0.102396 0.819167 0.102396 1.22875v0.204792c0.204792 77.411249 0.511979 221.174998 0 244.316456v0.409583c-14.335417 65.738124-33.893021 101.781457-69.014791 166.59802z m90.927499-38.09125a25.424885 25.424885 0 0 1-8.806042 9.932396 39.647666 39.647666 0 0 1-11.980312 4.812604 60.771927 60.771927 0 0 1-8.806042 1.433542 1.884083 1.884083 0 0 1-1.843125-2.764688c8.908437-17.2025 16.690521-33.381041 23.551042-49.86677a1.843125 1.843125 0 0 1 3.276666-0.204792 34.333323 34.333323 0 0 1 4.607813 36.657708z m-167.82677-251.996144a69.321979 69.321979 0 1 0 69.424375 69.321979 69.465333 69.465333 0 0 0-69.424375-69.321979z m0 97.890416a28.568437 28.568437 0 1 1 28.568438-28.568437 28.578677 28.578677 0 0 1-28.568438 28.568437z m-342.923643-97.890416a69.321979 69.321979 0 1 0 69.424375 69.321979 69.311739 69.311739 0 0 0-69.424375-69.321979z m0 97.890416a28.568437 28.568437 0 1 1 28.568438-28.568437 28.517239 28.517239 0 0 1-28.568438 28.568437z m-283.943643 53.143437v-11.161146a48.771135 48.771135 0 0 0-45.156562-33.790624h-11.365938c-13.004271-1.023958-23.960625-7.065312-25.394166-18.636042a18.031906 18.031906 0 0 1-0.307188-3.379062L329.202601-82.90415900000005v-11.263541a44.357875 44.357875 0 0 0-42.801458-33.790625H168.236353a44.48075 44.48075 0 0 0-42.903854 33.790625v11.263541l-19.557604 248.002707a18.031906 18.031906 0 0 1-0.307188 3.379062c-1.433542 11.570729-12.492292 17.612083-25.496562 18.636042h-11.263541a49.037364 49.037364 0 0 0-45.361354 33.790624v11.161146L0.614375 468.395004c-0.102396 18.124062-4.300625 44.95177 11.365937 56.317707 10.751562 7.782083 42.801458 22.424687 56.727292 22.424688h317.119893c13.823437 0 45.770937-14.642604 56.522499-22.424688 15.666562-11.365937 11.365937-38.193646 11.263542-56.317707z m-59.082395 282.510102H82.633437c-33.381041 0-48.023645-14.949792-48.023646-46.18052L57.341666 243.32896400000004c2.867083-17.509687 3.174271-22.424687 22.629479-22.424688h22.731875c12.492292-0.819167 32.561875-10.956354 33.995416-22.527083 0.102396-0.819167 0-10.444375 0-11.263541l22.629479-247.593123v-11.263542c3.276667-17.100104 3.379062-22.424687 22.629479-22.424687h90.722708c19.250417 0 19.250417 5.324583 22.629479 22.424687v11.263542l22.629479 247.593123c0 0.819167-0.102396 10.444375 0 11.263541 1.331146 11.570729 21.400729 21.707916 33.89302 22.527083h22.629479c19.455208 0 19.762396 4.915 22.629479 22.424688l22.629479 225.06604c0 31.230729-14.540208 46.18052-47.818853 46.18052zM227.318748 603.455107a146.272447 146.272447 0 1 0 147.347603 146.221248A146.743468 146.743468 0 0 0 227.318748 603.455107z m0 258.754268a112.481822 112.481822 0 1 1 113.352187-112.53302A112.963082 112.963082 0 0 1 227.318748 862.209375z"  horiz-adv-x="1270" />

    
    <glyph glyph-name="weibiaoti-" unicode="&#58899;" d="M554.728 167.849a684.57 684.57 0 0 1 291.858-113.762l6.187 51.516c-93.828 13.459-192.093 50.91-270.168 104.655l-27.877-42.409zM898.308 803.645l-11.569-36.158C844.959 831.3 766.035 859.818 693.114 837.455c-72.924-22.369-122.291-90.238-121.105-166.5h54.234a117.329 117.329 0 0 0 53.454 100.721c34.03 22.075 77.052 25.002 113.766 7.743A116.01 116.01 0 0 0 838.292 742l-36.152 11.932-16.814-51.525 124.555-40.672 40.677 124.552-52.25 17.358zM822.865 591.025l-130.517 42.663-42.665-130.523 51.521-16.807 12.475 38.506c43.13-56.443 116.578-80.473 184.725-60.426 68.148 20.042 116.895 80.007 122.594 150.811l-54.229 4.521a117.344 117.344 0 0 0-58.051-91.937 117.336 117.336 0 0 0-108.629-4.779 116.453 116.453 0 0 0-40.493 31.999l46.101-15.005 17.168 50.977zM935.199-19.118c-71.602-15.014-203.022-4.466-365.516 102.206-197.488 129.609-395.052 47.69-514.492 3.465l1.732 637.567c56.323 28.384 145.137 91.675 377.064 51.103l0.864 44.947C153.073 881.658 4 748.019 4 748.019v-742.663l49.906 22.229c3.78 1.658 269.238 147.181 482.101 7.635 145.457-94.605 267.498-115.183 343.657-115.183a309.889 309.889 0 0 1 83.962 9.695l25.072 7.571V378.169H936.93l-1.731-397.287zM437.527 448.271V505.32h-88.105l91.96 81.365-40.315 40.313-84.538-73.758-79.983 68.923-40.313-40.313 87.398-76.53H198.29v-57.049h89.716v-20.535H198.29v-57.049h89.716v-98.421h57.042v98.421h92.479v57.049h-92.479v20.535z"  horiz-adv-x="1024" />

    
    <glyph glyph-name="feiji1" unicode="&#59123;" d="M792.4 705.7c12.4 0 18.7-3.7 22.4-6.9l0.4-0.4c11.1-13.5 6.8-36.3 1.2-53.1l-4.9-14.8c-8.4-21.6-22.2-42.1-41.2-61.1L704 502.7l-16.2-16.3 5-22.4 71.1-315.9v-0.6l-0.1-0.1-58.6-44.1c-0.8 0.3-1.2 0.6-1.8 1.5L589.1 316.4l-26.7 49.4-39.6-39.8-89.3-89.6-16.9-17 6.2-23.2 20.2-75.9-43.4-43.6-83.9 114-3.7 5-5 3.7-113.8 84.4 41.6 44.2 0.8-0.2 76.6-20.5 23.3-6.2 17 17.1 89.3 89.6 39.4 39.5-49 26.7-211.1 114.8 58.5 58.7h1.3l300-71.5 22.8-5.4 16.5 16.6 65.7 65.9c25.9 23.5 51.2 39.2 75.3 46.6l0.5 0.1 0.5 0.2c11.2 3.8 21.3 5.7 30.2 5.7m0 41.7c-13.4 0-28.1-2.7-43.5-7.8-33.2-10.2-63.8-30.7-91.9-56.3l-66.4-66.6-301.1 71.7c-3.1 0.6-6.2 0.9-9.4 0.9-10.4 0-21.1-3.3-28.9-11.2L190 616.7c-7.7-7.7-12.8-20.5-10.2-35.9 2.6-12.8 10.2-23.1 20.4-28.2L412 437.4l-89.3-89.6-76.6 20.5c-5.1 2.6-10.2 2.6-12.8 2.6-10.2 0-20.4-5.1-28.1-12.8L161.8 312c-10.2-7.7-12.8-20.5-12.8-30.7 0-12.8 7.7-23 15.3-28.2L281.7 166l86.8-117.8c7.7-10.2 17.9-15.4 28.1-15.4h2.5c10.2 0 20.4 5.1 28.1 12.8l45.9 46.1c10.2 10.2 15.3 25.6 10.2 38.4L463 206.9l89.3 89.7L667.1 84c7.7-12.8 17.9-17.9 25.5-20.5 5.1-2.6 7.7-2.6 10.2-2.6 10.2 0 17.9 2.6 25.5 7.7l61.2 46.1c12.8 10.2 17.9 25.6 15.3 41l-71.5 317.6 66.4 66.6c25.5 25.6 45.9 56.3 56.2 92.2 12.8 38.4 10.2 71.7-10.2 94.8l-2.6 2.6c-13.5 12.1-30.9 17.9-50.7 17.9z m0 0"  horiz-adv-x="1024" />

    
    <glyph glyph-name="WIFIwofi" unicode="&#58883;" d="M425.5744 124.58666667a1.3504 1.3504 0 1 1 172.8512 0 1.3504 1.3504 0 1 1-172.8512 0zM512 384c-83.21706667 0-157.0816-39.3216-204.5952-100.352l45.53386667-35.4304c36.864 47.5136 94.27626667 78.0288 159.06133333 78.0288s122.12906667-30.5152 159.19786667-78.0288l45.39733333 35.4304C669.0816 344.6784 595.21706667 384 512 384zM512 729.83893333c-194.21866667 0-366.66026667-91.88693333-477.3888-234.0864l46.55786667-36.18133333C181.17973333 587.91253333 336.75946667 670.78826667 512 670.78826667c175.17226667 0 330.82026667-82.87573333 430.83093333-211.21706667l46.62613334 36.2496C878.592 638.02026667 706.21866667 729.83893333 512 729.83893333zM512 556.91946667c-138.71786667 0-261.87093333-65.536-340.92373333-167.1168l45.4656-35.4304C285.0816 442.368 391.7824 499.3024 512 499.3024s226.85013333-56.9344 295.5264-144.93013333l45.39733333 35.4304C773.87093333 491.3152 650.71786667 556.91946667 512 556.91946667z"  horiz-adv-x="1024" />

    
    <glyph glyph-name="jiudian1" unicode="&#59199;" d="M960-128H0v64h64V416c0 54.4 41.6 96 96 96h384c54.4 0 96-41.6 96-96v-480h32V448c0 54.4-41.6 96-96 96h-192V800c0 54.4 41.6 96 96 96h384c54.4 0 96-41.6 96-96v-864h64v-64h-64zM320 384H192v-64h128v64z m0-128H192v-64h128v64z m0-128H192v-64h128v64z m192 256h-128v-64h128v64z m0-128h-128v-64h128v64z m0-128h-128v-64h128v64z m128 640h-128v-64h128V768z m0-128h-128v-64h128V640z m192 128h-128v-64h128V768z m0-128h-128v-64h128V640z"  horiz-adv-x="1024" />

    
    <glyph glyph-name="shouji" unicode="&#58884;" d="M820.409449 98.77165400000001q0-25.19685-10.07874-46.866142t-27.716535-38.299213-41.322835-26.204724-50.897638-9.574803l-357.795276 0q-27.212598 0-50.897638 9.574803t-41.322835 26.204724-27.716535 38.299213-10.07874 46.866142l0 675.275591q0 25.19685 10.07874 47.370079t27.716535 38.80315 41.322835 26.204724 50.897638 9.574803l357.795276 0q27.212598 0 50.897638-9.574803t41.322835-26.204724 27.716535-38.80315 10.07874-47.370079l0-675.275591zM738.771654 725.6692909999999l-455.559055 0 0-577.511811 455.559055 0 0 577.511811zM510.992126 119.93700799999999q-21.165354 0-36.787402-15.11811t-15.622047-37.291339q0-21.165354 15.622047-36.787402t36.787402-15.622047q22.173228 0 37.291339 15.622047t15.11811 36.787402q0 22.173228-15.11811 37.291339t-37.291339 15.11811zM591.622047 811.338583q0 8.062992-5.03937 12.598425t-11.086614 4.535433l-128 0q-5.03937 0-10.582677-4.535433t-5.543307-12.598425 5.03937-12.598425 11.086614-4.535433l128 0q6.047244 0 11.086614 4.535433t5.03937 12.598425z"  horiz-adv-x="1024" />

    
    <glyph glyph-name="gonglve" unicode="&#60544;" d="M959.29 725.92H602.26c-34.29 0-65.57-12.89-89.26-34.09-23.69 21.2-54.97 34.09-89.26 34.09H66.71v-624.81h272.25c47.2-41.66 109.2-66.94 177.11-66.94s129.91 25.28 177.11 66.94h266.11V725.92zM379.83 186.59v3.79H155.97V636.67h223.14c49.3 0 89.26-39.96 89.26-89.26V129.9c-35.01 9.68-65.7 29.75-88.54 56.69z m490.2 3.79H655.44c-24.41-30.45-58.6-52.73-97.81-62.07v419.1c0 49.3 39.96 89.26 89.26 89.26h223.14v-446.29zM713.83 368.89c24.65 0 44.63 19.98 44.63 44.63V547.41c0 24.65-19.98 44.63-44.63 44.63s-44.63-19.98-44.63-44.63v-133.89c0-24.65 19.98-44.63 44.63-44.63z"  horiz-adv-x="1024" />

    
    <glyph glyph-name="caidan" unicode="&#58885;" d="M374.272 455.168H127.488c-33.792 0-61.44 27.648-61.44 61.44V763.392c0 33.792 27.648 61.44 61.44 61.44h247.296c33.792 0 61.44-27.648 61.44-61.44v-247.296c-0.512-33.792-27.648-60.928-61.952-60.928zM127.488 763.392v-247.296h247.296V763.392H127.488zM762.88 403.968c-16.384 0-31.744 6.144-43.52 17.92l-174.592 174.592c-11.776 11.776-17.92 27.136-17.92 43.52s6.144 31.744 17.92 43.52l174.592 174.592c11.776 11.776 27.136 17.92 43.52 17.92s31.744-6.144 43.52-17.92l174.592-174.592c11.776-11.776 17.92-27.136 17.92-43.52s-6.144-31.744-17.92-43.52l-174.592-174.592c-11.776-11.776-27.136-17.92-43.52-17.92z m0 410.624L588.288 640 762.88 465.408 937.472 640 762.88 814.592zM374.272-56.831999999999994H127.488c-33.792 0-61.44 27.648-61.44 61.44v247.296c0 33.792 27.648 61.44 61.44 61.44h247.296c33.792 0 61.44-27.648 61.44-61.44v-247.296c-0.512-34.304-27.648-61.44-61.952-61.44z m-246.784 308.224v-247.296h247.296v247.296H127.488zM886.272-56.831999999999994h-247.296c-33.792 0-61.44 27.648-61.44 61.44v247.296c0 33.792 27.648 61.44 61.44 61.44h247.296c33.792 0 61.44-27.648 61.44-61.44v-247.296c0-34.304-27.136-61.44-61.44-61.44z m-246.784 308.224v-247.296h247.296v247.296h-247.296z"  horiz-adv-x="1024" />

    
    <glyph glyph-name="che" unicode="&#58892;" d="M1257.523 488.4H1224.4l-9.76 33.3h90.263a47.32 47.32 0 0 1 0 94.64h-118.3l-52.761 178.573C1112.843 852.5840000000001 1048.192 896 983.719 896h-630.24c-64.473 0-129.124-43.416-151.305-103.926l-51.756-175.556H47.32a47.32 47.32 0 1 1 0-94.64h75.06l-9.996-33.479H94.64A94.64 94.64 0 0 1 0 393.76v-419.193h75.712v-51.579a47.32 47.32 0 0 1 94.64 0v51.579h1023.29v-51.579a47.32 47.32 0 0 1 94.639 0v51.579h64.06V393.582a94.994 94.994 0 0 1-94.64 94.64zM94.64 69.26300000000003V224.76999999999998h109.486a95.409 95.409 0 0 1 88.724 61.338l35.49 94.64a47.32 47.32 0 0 1 2.13 13.072h667.622a45.427 45.427 0 0 1 2.13-13.072l35.49-94.285a95.054 95.054 0 0 1 88.724-61.456h133.087V69.5z m1162.883 250.322h-132.968l-27.92 74.055h160.888zM228.91 547.904a44.185 44.185 0 0 1 4.2 14.196l59.15 200.162c6.625 18.041 34.839 38.921 61.338 38.921h630.122c26.5 0 54.714-20.88 60.333-35.845l81.626-276.88H211.46z m3.195-154.322l-27.978-74.055H94.64v74.055zM506.558 279.48199999999997h340.17q45.013 0 45.013-45.012v-5.265q0-45.013-45.013-45.013h-340.17q-45.013 0-45.013 45.013v5.265q0 45.012 45.013 45.012z"  horiz-adv-x="1357" />

    
    <glyph glyph-name="huoche" unicode="&#58886;" d="M786.068006 106.66560100000004l47.366797-168.918177-63.683415 0-15.646352 62.577221-482.253512 0-15.646352-62.577221-64.695464 0 47.355541 168.923294c-61.891605 7.643074-112.031563 59.812247-112.031563 123.764791L126.833687 669.016359c0 69.206198 58.154491 125.311007 127.360689 125.311007L382.577349 794.327366 382.577349 856.982358l260.870426 0 0-62.654992 127.360689 0c69.205175 0 125.308961-56.103786 125.308961-125.311007l0-438.58085C896.117424 166.45431199999996 847.989287 114.26978899999995 786.068006 106.66560100000004L786.068006 106.66560100000004zM766.708076 230.43550900000002L766.708076 355.74651600000004l-62.654992 0 0-125.311007L766.708076 230.43550900000002 766.708076 230.43550900000002zM734.337831 65.02931799999999l-12.592806 40.095183L303.189254 105.124502l-12.593829-40.095183L734.337831 65.02931799999999 734.337831 65.02931799999999zM254.194376 230.43550900000002l62.654992 0L316.849368 355.74651600000004l-62.654992 0L254.194376 230.43550900000002 254.194376 230.43550900000002zM190.510962 669.016359l0-250.615874 256.771061 0L447.282023 669.016359 190.510962 669.016359 190.510962 669.016359zM574.641689 794.327366L446.258717 794.327366l0-62.656015L574.641689 731.671351 574.641689 794.327366 574.641689 794.327366zM832.441173 669.016359L574.641689 669.016359l0-250.615874 257.799484 0L832.441173 669.016359 832.441173 669.016359zM832.441173 669.016359"  horiz-adv-x="1024" />

    
    <glyph glyph-name="wodelipinka" unicode="&#58887;" d="M905.46818 621.260352h-113.951821a162.643614 162.643614 0 1 1-279.851201 131.605309 162.715965 162.715965 0 1 1-279.851201-131.605309H117.862136A112.794215 112.794215 0 0 1 5.212622 508.610838v-523.961324a112.794215 112.794215 0 0 1 112.649514-112.649514h787.678394a112.721864 112.721864 0 0 1 112.649514 112.649514V508.610838a112.721864 112.721864 0 0 1-112.721864 112.649514zM673.006466 844.60592a111.998361 111.998361 0 0 0 11.576058-223.345568H661.358057a112.070711 112.070711 0 0 0-85.662829 56.071531l-1.519357 2.604613A111.92601 111.92601 0 0 0 672.934115 844.60592zM511.882209 686.448028l17.870539-30.893604a173.640869 173.640869 0 0 1 4.558073-7.95854l15.265927-26.407883h-75.244377zM350.179149 844.60592a111.998361 111.998361 0 0 0 11.576058-223.345568h-23.224466a111.998361 111.998361 0 0 0 11.576058 223.345568z m617.00389-859.956406a61.85956 61.85956 0 0 0-61.78721-61.787209H117.789786a61.85956 61.85956 0 0 0-61.78721 61.787209v68.081691h911.252813z m0 118.799295H56.002576v405.162029a61.85956 61.85956 0 0 0 61.78721 61.787209h220.668605c3.90692 0 7.813839-0.434102 11.720758-0.434102s7.886189 0 11.720759 0.434102h24.382072L230.077548 299.880043l57.88029-0.651154L444.524022 570.470397h134.065221l156.566184-271.241508h58.603793L637.193036 570.470397h23.730919c3.90692 0 7.813839-0.434102 11.720759-0.434102s7.886189 0 11.720759 0.434102h220.668605a61.85956 61.85956 0 0 0 61.787209-61.787209z"  horiz-adv-x="1024" />

    
    <glyph glyph-name="gongjiao-on" unicode="&#58889;" d="M881.667954 215.969112l0-47.444015q0-22.733591-4.942085-39.53668t-17.791506-26.687259-38.548263-9.88417l0-61.281853q0-25.698842-18.285714-43.984556t-43.984556-18.285714-43.490347 18.285714-17.791506 43.984556l0 61.281853-371.644788 0 0-61.281853q0-25.698842-17.791506-43.984556t-43.490347-18.285714-43.984556 18.285714-18.285714 43.984556l0 61.281853q-24.710425 0-37.559846 9.88417t-17.791506 26.687259-5.436293 39.042471-0.494208 47.938224l0 556.478764q0 25.698842 9.88417 47.938224t26.687259 39.042471 39.042471 26.687259 47.938224 9.88417l494.208494 0q25.698842 0 47.938224-9.88417t39.042471-26.687259 26.687259-39.042471 9.88417-47.938224l0-556.478764zM385.482625 834.718147q-12.849421 0-21.745174-8.895753t-8.895753-21.745174q0-13.837838 8.895753-22.733591t21.745174-8.895753l251.057915 0q12.849421 0 21.745174 8.895753t8.895753 22.733591q0 12.849421-8.895753 21.745174t-21.745174 8.895753l-251.057915 0zM292.571429 206.08494199999996q18.779923 0 32.123552 13.343629t13.343629 32.123552-13.343629 32.123552-32.123552 13.343629q-19.76834 0-32.617761-13.343629t-12.849421-32.123552 12.849421-32.123552 32.617761-13.343629zM725.498069 208.061776q17.791506 0 30.146718 12.849421t12.355212 30.640927-12.355212 30.640927-30.146718 12.849421q-18.779923 0-31.135135-12.849421t-12.355212-30.640927 12.355212-30.640927 31.135135-12.849421zM820.3861 711.166023l-618.749035 0 0-247.104247 618.749035 0 0 247.104247z"  horiz-adv-x="1024" />

    
    <glyph glyph-name="menpiao" unicode="&#59118;" d="M835.5 733.5m-86 0a86 86 0 1 1 172 0 86 86 0 1 1-172 0ZM102.5 112v-89.2c0-41.1 33.8-74.3 75.5-74.3h600c41.7 0 75.5 33.3 75.5 74.3V112h-751zM853.5 114V341.7c0 10.4-8.4 18.8-18.8 18.8h-56.2v113h75V546c0 19.5-14.2 35.7-33.4 39.5C756 597.9 704.2 646 685.9 708.7c-5.3 16.5-20.3 27.8-37.5 27.8H307.6c-17.2 0-32.2-11.3-37.5-27.8C251.7 646 200 597.9 135.9 585.5c-19.1-3.8-33.4-19.9-33.4-39.5v-72.5h75v-113h-56.2c-10.4 0-18.8-8.4-18.8-18.8V114h751zM515.4 473.9h187.8v-112.6H515.3V473.9z m-262.9 0h187.8v-112.6H252.4V473.9z"  horiz-adv-x="1024" />

    
    <glyph glyph-name="chuzuche" unicode="&#58906;" d="M1106.349419 550.284387h-16.450064l-57.344-15.954581-57.277936 136.059871c-16.483097 40.035097-65.569032 71.944258-114.787096 71.944258h-40.96v111.979355C819.530323 878.261677 803.014194 894.348387 778.471226 894.348387H377.063226c-24.542968 0-40.993032-15.954581-40.993032-40.035097v-111.979355H295.044129c-49.218065 0-98.304-32.04129-114.754064-71.944258l-57.310968-136.092903-57.310968 15.987613H49.218065c-24.542968 0-49.218065-23.948387-49.218065-48.028903v-32.04129c0-32.04129 24.542968-63.983484 65.536-63.983484l-8.225032-15.954581c-16.450065-40.035097-32.768-104.018581-32.768-144.020645v-280.113549c0-32.04129 24.542968-63.983484 65.536-63.983483H163.84c32.768 0 65.536 23.948387 65.536 63.983483v71.944259h680.068129v-71.944259c0-32.04129 24.542968-63.983484 65.536-63.983483h73.761032c32.768 0 65.536 23.948387 65.536 63.983483v280.113549c0 40.002065-16.450065 103.985548-32.768 144.020645l8.258065 15.954581h8.192c32.768 0 57.310968 23.948387 57.310968 63.983484v32.04129c0.165161 24.113548-24.377806 48.028903-48.920775 48.028903M738.634323 735.430194h32.107354V831.78529h-32.107354zM611.592258 831.78529h36.269419l22.461936-30.72 21.999484 30.72h36.269419l-35.344516-48.194064 45.386323-48.161032h-36.26942l-28.407742 30.587871-25.930322-30.587871h-37.854968l40.365419 45.881806zM566.602323 831.78529l43.60258-96.355096h-29.068387l-9.480258 24.014451h-47.170064l-9.480259-24.014451h-33.296516l47.170065 96.355096zM385.387355 831.78529h96.322064v-16.020645h-29.629935v-80.334451h-37.062194V815.731613h-29.629935zM167.242323 427.800774l91.631483 197.764129c8.390194 30.455742 41.719742 45.617548 66.692129 45.617549h508.696775c24.939355 0 58.268903-22.759226 66.626064-45.617549l91.631484-197.764129c8.390194-22.759226 0-45.650581-33.329548-45.65058H192.346839c-25.104516 7.597419-41.68671 22.792258-25.104516 45.65058M385.387355 181.380129c0-16.020645-8.357161-24.014452-24.939355-24.014452H185.509161c-16.714323 0-24.939355 7.993806-24.939355 24.014452V261.780645c0 16.020645 16.714323 24.047484 24.939355 24.047484h174.773678c16.747355 0 24.939355-8.026839 24.939355-24.047484v-80.400516h0.165161zM995.559226 181.380129c0-16.020645-8.357161-24.014452-24.939355-24.014452h-174.938839c-16.714323 0-24.939355 7.993806-24.939355 24.014452V261.780645c0 16.020645 8.357161 24.047484 24.939355 24.047484h174.80671c16.714323 0 24.906323-8.026839 24.906323-24.047484v-80.400516h0.165161zM530.795355 831.78529l-16.945549-32.140387h32.107355z"  horiz-adv-x="1156" />

    
    <glyph glyph-name="qianzheng" unicode="&#59135;" d="M825.6 787.2c2.4-10.4 4-20.8 4-31.2v-560c0-70.4-57.6-128-128-128h-560c-11.2 0-22.4 1.6-33.6 4.8 14.4-55.2 64-96.8 124-96.8h560c70.4 0 128 57.6 128 128V664c0 59.2-40 108.8-94.4 123.2zM792 792H232c-70.4 0-128-57.6-128-128v-560c0-70.4 57.6-128 128-128h560c70.4 0 128 57.6 128 128V664c0 70.4-57.6 128-128 128z m96-688c0-52.8-43.2-96-96-96H232c-52.8 0-96 43.2-96 96V664c0 52.8 43.2 96 96 96h560c52.8 0 96-43.2 96-96v-560zM512 648c-145.6 0-264-118.4-264-264s118.4-264 264-264 264 118.4 264 264-118.4 264-264 264z m231.2-248H616c-1.6 80.8-18.4 162.4-47.2 208.8 95.2-24 168-107.2 174.4-208.8zM512 152c-28.8 0-68.8 81.6-72 216h144c-3.2-134.4-43.2-216-72-216z m-72 248c3.2 134.4 43.2 216 72 216 28.8 0 68.8-81.6 72-216H440z m16 208.8c-29.6-46.4-45.6-128-47.2-208.8h-128C287.2 501.6 360 584.8 456 608.8zM280.8 368H408c1.6-80.8 18.4-162.4 47.2-208.8-95.2 24-168 107.2-174.4 208.8zM568 159.2c29.6 46.4 45.6 128 47.2 208.8h127.2C736.8 266.4 664 183.2 568 159.2z"  horiz-adv-x="1024" />

    
    <glyph glyph-name="gouwuchekong" unicode="&#58880;" d="M332.8 105.472q19.456 0 36.864-7.168t30.208-19.968 20.48-30.208 7.68-36.864-7.68-36.864-20.48-30.208-30.208-20.48-36.864-7.68q-20.48 0-37.888 7.68t-30.208 20.48-20.48 30.208-7.68 36.864 7.68 36.864 20.48 30.208 30.208 19.968 37.888 7.168zM758.784 103.424q19.456 0 37.376-7.168t30.72-19.968 20.48-30.208 7.68-36.864-7.68-36.864-20.48-30.208-30.72-20.48-37.376-7.68-36.864 7.68-30.208 20.48-20.48 30.208-7.68 36.864 7.68 36.864 20.48 30.208 30.208 19.968 36.864 7.168zM930.816 685.056q28.672 0 44.544-7.68t22.528-18.944 6.144-24.064-3.584-22.016-13.312-37.888-22.016-62.976-23.552-68.096-18.944-53.248q-13.312-40.96-33.28-56.832t-49.664-15.872l-35.84 0-65.536 0-86.016 0-96.256 0-253.952 0 14.336-92.16 517.12 0q49.152 0 49.152-41.984 0-20.48-9.728-35.84t-38.4-14.336l-49.152 0-94.208 0-118.784 0-119.808 0-99.328 0-55.296 0q-20.48 0-34.304 9.216t-23.04 24.064-14.848 32.256-8.704 32.768q-1.024 6.144-5.632 29.696t-11.264 58.88-14.848 78.848-16.384 87.552q-19.456 103.424-44.032 230.4l-76.8 0q-15.36 0-25.6 7.68t-16.896 18.432-9.216 23.04-2.56 22.528q0 20.48 13.824 33.792t37.376 12.288l103.424 0q20.48 0 32.768-6.144t19.456-15.36 10.24-18.944 5.12-16.896q2.048-8.192 4.096-23.04t4.096-30.208q3.072-18.432 6.144-38.912l700.416 0zM892.928 593.92l-641.024 2.048 35.84-185.344 535.552-1.024z"  horiz-adv-x="1028" />

    
    <glyph glyph-name="gouwuche" unicode="&#58913;" d="M384 160c-53.02 0-96-42.98-96-96s42.98-96 96-96 96 42.98 96 96-42.98 96-96 96z m0-128c-17.673 0-32 14.327-32 32s14.327 32 32 32 32-14.327 32-32-14.327-32-32-32zM800 160c-53.02 0-96-42.98-96-96s42.98-96 96-96 96 42.98 96 96-42.98 96-96 96z m0-128c-17.674 0-32 14.327-32 32s14.326 32 32 32 32-14.327 32-32-14.326-32-32-32zM907.942 670.896c-27.701 34.261-73.735 33.707-84.16 33.104H253.553l-5.959 37.078a32.208 32.208 0 0 1-0.55 2.683C241.822 764.649 222.668 800 184 800H96c-17.673 0-32-14.327-32-32s14.327-32 32-32h85.241c1.212-1.706 2.647-4.596 3.486-7.085l71.678-445.993c0.145-0.901 0.329-1.797 0.55-2.683 1.695-6.78 11.223-41.673 32.417-62.867C314.033 192.712 348.187 192 352 192h512c17.673 0 32 14.327 32 32s-14.327 32-32 32H352.333c-3.14 0.13-12.66 1.581-17.706 6.628-6.26 6.26-12.644 22.351-15.281 31.994L315.268 320h509.584c14.533 0 27.241 9.794 30.944 23.848 0.314 1.194 31.831 120.639 62.9 222.846 13.325 43.837 9.707 78.896-10.754 104.202z m-50.48-85.589C834.419 509.502 811.167 424.452 800.278 384H304.982l-41.143 256h561.013c0.897 0 1.795 0.038 2.689 0.113 3.54 0.3 23.104-0.145 30.634-9.457 6.038-7.467 5.778-23.996-0.713-45.349z"  horiz-adv-x="1024" />

    
    <glyph glyph-name="weibo" unicode="&#58941;" d="M726.974 393.461c-34.789 6.761-17.886 25.465-17.886 25.465s34.027 56.002-6.707 96.79c-50.495 50.44-173.186-6.435-173.186-6.435-46.828-14.56-34.409 6.598-27.81 42.697 0 42.424-14.519 114.294-139.31 71.816-124.709-42.642-231.751-192.217-231.751-192.217-74.487-99.299-64.591-176.076-64.591-176.076 18.568-169.478 198.679-216.047 338.766-227.061 147.381-11.616 346.304 50.821 406.615 178.912 60.311 128.363-49.294 179.129-84.138 186.109v0zM415.431 76.263c-146.275-6.816-264.55 66.526-264.55 164.188 0 97.717 118.275 176.13 264.55 182.838 146.426 6.761 264.92-53.603 264.92-151.101 0-97.663-118.547-189.273-264.92-195.925v0zM386.285 358.944c-147.203-17.231-130.163-155.082-130.163-155.082s-1.527-43.679 39.453-65.872c86.102-46.623 174.741-18.377 219.55 39.479 44.824 57.801 18.486 198.542-128.84 181.475v0zM349.151 165.473c-27.483-3.272-49.622 12.597-49.622 35.553 0 22.903 19.658 46.895 47.141 49.786 31.573 2.944 52.104-15.269 52.104-38.226-0-22.847-22.303-44.005-49.622-47.113v0zM435.853 239.307c-9.297-6.926-20.775-5.944-25.656 2.4-5.153 8.124-3.217 21.158 6.217 27.974 10.906 8.124 22.221 5.78 27.156-2.345 4.933-8.289 1.39-20.83-7.717-28.028v0zM798.626 453.117c11.832 0 21.921 8.724 23.611 20.231 0.218 0.818 0.327 1.581 0.327 2.562 17.995 161.572-132.398 133.761-132.398 133.761-13.36 0-24.048-10.797-24.048-24.266 0-13.25 10.687-24.048 24.048-24.048 108.023 23.83 84.194-84.193 84.194-84.193 0.001-13.361 10.852-24.049 24.267-24.049v0zM781.067 735.144c-51.967 12.215-105.406 1.745-120.401-1.145-1.199-0.108-2.29-1.199-3.326-1.417-0.49-0.109-0.873-0.655-0.873-0.655-14.723-4.2-25.52-17.831-25.52-34.027 0-19.249 15.595-35.063 35.064-35.063 0 0 18.921 2.508 31.737 7.58 12.76 5.126 120.401 3.816 173.896-86.048 29.228-65.546 12.868-109.387 10.797-116.476 0 0-6.926-17.013-6.926-33.808 0-19.358 15.595-31.519 34.953-31.519 16.141 0 29.719 2.182 33.7 29.556h0.218c57.419 191.345-70.235 281.319-163.318 303.021v0zM781.067 735.144z"  horiz-adv-x="1024" />

    
    <glyph glyph-name="youjiantou" unicode="&#58905;" d="M48.614141 383.485414C48.614141 639.004444 256.478384 846.868687 512.003879 846.868687c255.51903 0 463.38198-207.864242 463.38198-463.383273 0-255.525495-207.864242-463.388444-463.38198-463.388444C256.478384-79.904323 48.614141 127.959919 48.614141 383.485414L48.614141 383.485414zM909.191758 383.485414c0 219.015758-178.173414 397.186586-397.186586 397.186586-219.020929 0-397.193051-178.172121-397.193051-397.186586 0-219.019636 178.172121-397.191758 397.193051-397.191758C731.018343-13.707636 909.191758 164.464485 909.191758 383.485414L909.191758 383.485414zM567.474424 194.752646l165.761293 163.939556c9.797818 9.667232 12.249212 23.964444 7.378747 35.979636-0.297374 0.757657-1.025293 1.353697-1.387313 2.085495-1.521778 3.075879-3.176727 6.156929-5.72897 8.737616-0.028444 0.029737-0.065939 0.029737-0.094384 0.065939-0.036202 0.029737-0.036202 0.067232-0.067232 0.100848L568.962586 570.489535c-12.907313 12.944808-33.857939 12.974545-46.796283 0.071111-6.491798-6.454303-9.733172-14.964364-9.733172-23.434343 0-8.442828 3.206465-16.914101 9.662061-23.368404l106.843798-107.177374L313.407354 416.580525c-18.302707 0-33.101576-14.828606-33.101576-33.096404 0-18.27297 14.797576-33.101576 33.101576-33.101576l317.287434 0-109.756768-108.56598c-6.556444-6.454303-9.830141-14.995394-9.830141-23.53002 0-8.409212 3.176727-16.818424 9.566384-23.272727C533.513051 182.009535 554.467556 181.878949 567.474424 194.752646L567.474424 194.752646zM567.474424 194.752646"  horiz-adv-x="1024" />

    
    <glyph glyph-name="weixin" unicode="&#58888;" d="M664.250054 527.458319c10.015098 0 19.892049-0.732687 29.67281-1.795902-26.647917 122.810047-159.358451 214.077703-310.826188 214.077703-169.353083 0-308.085774-114.232694-308.085774-259.274068 0-83.708494 46.165436-152.460344 123.281791-205.78483l-30.80868-91.730191 107.688651 53.455469c38.558178-7.53665 69.459978-15.308661 107.924012-15.308661 9.66308 0 19.230993 0.470721 28.752858 1.225921-6.025227 20.36584-9.521864 41.723264-9.521864 63.862493C402.328693 419.367509 517.908058 527.458319 664.250054 527.458319zM498.62897 610.12611c23.200398 0 38.557154-15.120372 38.557154-38.061874 0-22.846334-15.356756-38.156018-38.557154-38.156018-23.107277 0-46.260603 15.309684-46.260603 38.156018C452.368366 595.005738 475.522716 610.12611 498.62897 610.12611zM283.016307 533.909242c-23.107277 0-46.402843 15.309684-46.402843 38.156018 0 22.941502 23.295566 38.061874 46.402843 38.061874 23.081695 0 38.46301-15.120372 38.46301-38.061874C321.479317 549.217902 306.098002 533.909242 283.016307 533.909242zM945.448458 289.848667c0 121.888048-123.258255 221.236753-261.683954 221.236753-146.57838 0-262.015505-99.348706-262.015505-221.236753 0-122.06508 115.437126-221.200938 262.015505-221.200938 30.66644 0 61.617359 7.609305 92.423993 15.262612l84.513836-45.786813-23.178909 76.17082C899.379213 160.223401 945.448458 221.09784 945.448458 289.848667zM598.803483 328.005708c-15.332197 0-30.807656 15.096836-30.807656 30.501688 0 15.190981 15.47546 30.477129 30.807656 30.477129 23.295566 0 38.558178-15.286148 38.558178-30.477129C637.361661 343.102544 622.099049 328.005708 598.803483 328.005708zM768.25071 328.005708c-15.213493 0-30.594809 15.096836-30.594809 30.501688 0 15.190981 15.381315 30.477129 30.594809 30.477129 23.107277 0 38.558178-15.286148 38.558178-30.477129C806.808888 343.102544 791.357987 328.005708 768.25071 328.005708z"  horiz-adv-x="1024" />

    
    <glyph glyph-name="editor2" unicode="&#58926;" d="M941.214017 122.16869c-1.203408 6.122441-4.175089 11.967566-8.92016 16.709567L659.77309 410.430976c11.047614 28.091802 18.101263 58.189284 20.465101 89.596598 0.49528 2.258437 0.76441 4.601808 0.76441 7.008624l-0.204661 2.164293c0.215918 4.736884 0.331551 9.500375 0.331551 14.291494 0 170.725336-138.406257 309.12443-309.133639 309.12443-44.024679 0-85.889159-9.219989-123.793444-25.809829-6.462179-0.883113-12.706393-3.711532-17.797341-8.479115-3.634784-1.87572-7.231705-3.814886-10.780531-5.828752l3.723811-3.723811c-5.885034-12.125155-3.801583-27.143197 6.268774-37.214577l145.882532-146.790204-83.827197-84.479043L145.461441 667.402605c-10.56666 10.580986-26.610054 12.347213-39.025828 5.316076l-3.412726 3.195785c-2.139733-3.767813-4.195555-7.588839-6.178723-11.452843-2.946099-3.748371-4.958942-7.989975-6.025227-12.415774-17.929348-39.147602-27.940352-82.678024-27.940352-128.553864 0-170.728406 138.389884-309.125453 309.117266-309.125453 39.10053 0 76.498278 7.272637 110.931508 20.520359l249.061472-248.176312c6.505158-8.368598 14.052041-15.885805 22.444175-22.363334l1.667989-1.661849c3.611248-3.616364 7.865131-6.200212 12.392238-7.758708 18.34174-10.55438 39.61116-16.59291 62.291718-16.59291 69.076238 0 125.074623 55.999408 125.074623 125.074623C955.859575 84.648145 950.556802 104.648664 941.214017 122.16869zM830.850443 2.560568c-11.418051 0-22.098297 3.15383-31.226189 8.629541l-20.844747 20.771069c-0.813528 1.345648-1.568728 2.729158-2.278903 4.140297l-65.075111 64.712861c-0.13917-0.441045-0.287549-0.876973-0.420579-1.320065L543.574624 266.331044c0.097214 0.064468 0.195451 0.12689 0.292666 0.192382l-47.081295 47.079248c-36.735669-21.945825-79.68383-34.56933-125.585253-34.56933-135.449925 0-245.2691 109.810988-245.2691 245.260913 0 21.555945 2.785439 42.460044 8.010441 62.376653l127.742383-128.536468c0.877997-0.877997 1.796926-1.689479 2.745531-2.445702 1.152243-1.708921 2.479471-3.335978 3.991917-4.847401 12.712533-12.712533 33.305547-12.712533 46.01808 0L444.138938 581.539029c12.712533 12.71151 12.712533 33.313733 0 46.026266-0.804319 0.804319-1.641383 1.556449-2.50403 2.25946-1.098008 1.585101-2.344395 3.098571-3.755534 4.50971l-126.9616 127.743406c19.287275 4.879124 39.480176 7.483438 60.283991 7.483438 135.450948 0 245.252727-109.812011 245.252727-245.2691 0-2.515287-0.051165-5.01727-0.12689-7.514137-0.455371-2.170432-0.698918-4.418636-0.698918-6.724145l0.245593-2.584871c-1.771343-26.097378-7.619538-51.076282-16.919345-74.30124l4.071735-2.801812c-1.802042-1.191128-3.511987-2.579755-5.098111-4.166903-12.713556-12.712533-12.713556-33.314757 0-46.027289l155.519006-154.962328 0.272199 0.291642 28.646434-29.106922 13.047154-13.000082c-0.064468-0.019443-0.127913-0.040932-0.192382-0.060375l66.682725-67.75515c1.577938-0.941442 3.115967-1.942235 4.597715-3.01773l13.446243-13.398148c7.341199-10.045797 11.685133-22.420639 11.685133-35.815717C891.630738 29.782559 864.410793 2.560568 830.850443 2.560568z"  horiz-adv-x="1024" />

    
    <glyph glyph-name="7tiantuihuan" unicode="&#59025;" d="M911.872 445.952c-13.312 0-25.6 9.216-28.672 23.04C843.776 643.072 691.2 764.928 512 764.928S180.224 643.072 140.8 468.48c-3.584-15.872-19.456-25.6-34.816-22.016-15.872 3.584-25.6 19.456-22.016 34.816 45.568 201.216 221.696 342.016 428.544 342.016s382.976-140.8 428.544-342.016c3.584-15.872-6.144-31.232-22.016-34.816C915.968 445.952 913.92 445.952 911.872 445.952zM512-55.296c-206.848 0-382.976 140.8-428.544 342.016-3.584 15.872 6.144 31.232 22.016 34.816 15.872 3.584 31.744-6.144 34.816-22.016 39.424-174.592 192.512-296.448 371.2-296.448s331.776 121.856 371.2 296.448c3.584 15.872 19.456 25.6 34.816 22.016 15.872-3.584 25.6-19.456 22.016-34.816C894.976 84.992 718.336-55.296 512-55.296zM450.048 89.6c-4.096 0-8.704 1.024-12.8 3.072-14.848 7.168-20.992 24.576-13.824 38.912l192 402.432L339.968 534.016c-16.384 0-29.184 13.312-29.184 29.184 0 16.384 13.312 29.184 29.184 29.184l322.56 0c10.24 0 19.456-5.12 24.576-13.824 5.12-8.704 6.144-18.944 1.536-28.16l-211.968-444.416C471.552 95.744 461.312 89.6 450.048 89.6zM911.872 445.952c-5.12 0-10.24 1.024-14.848 4.096l-88.576 51.2c-13.824 8.192-18.944 26.112-10.752 39.936 8.192 13.824 26.112 18.944 39.936 10.752l63.488-36.864 36.864 63.488c8.192 13.824 26.112 18.944 39.936 10.752 13.824-8.192 18.944-26.112 10.752-39.936l-51.2-88.576C931.84 451.072 922.112 445.952 911.872 445.952zM60.928 174.592c-5.12 0-10.24 1.024-14.848 4.096-13.824 8.192-18.944 26.112-10.752 39.936l51.2 88.576c4.096 6.656 10.24 11.776 17.92 13.824 7.68 2.048 15.36 1.024 22.016-3.072l88.576-51.2c13.824-8.192 18.944-26.112 10.752-39.936-8.192-13.824-26.112-18.944-39.936-10.752L122.88 252.928 86.016 189.44C80.896 180.224 70.656 174.592 60.928 174.592z"  horiz-adv-x="1024" />

    
    <glyph glyph-name="15tianbaotui01" unicode="&#59016;" d="M981.333 896h-981.333v-1024h1024v42.667l-0 938.667v42.667h-42.667zM981.333-85.333h-938.667v938.667h938.667l-0-938.667zM512 0c200.533 0 362.667 162.133 362.667 362.667s-162.133 362.667-362.667 362.667h-64l64 64h-64l-85.333-85.333 85.333-85.333h64l-64 64h64c177.067 0 320-142.933 320-320s-142.933-320-320-320c-177.067 0-320 142.933-320 320h-42.667c0-200.533 162.133-362.667 362.667-362.667zM445.867 213.333h-40.533v320h-85.333v-42.667h42.667v-277.333h-44.8v-42.667h128zM608 213.333h-117.333v-42.667h117.333c64 0 117.333 53.333 117.333 117.333s-53.333 117.333-117.333 117.333l-74.667 0v85.333h170.667v42.667h-213.333v-170.667h117.333c40.533 0 74.667-34.133 74.667-74.667 0-40.533-34.133-74.667-74.667-74.667z"  horiz-adv-x="1024" />

    
    <glyph glyph-name="rightarrow" unicode="&#58918;" d="M445.343 603.561c-3.768 3.768-9.892 3.768-13.66 0l-13.66-13.66c-3.768-3.768-3.768-9.892 0-13.66l197.188-197.188-205.727-205.747c-3.729-3.748-3.729-9.796 0-13.544l13.544-13.544c3.729-3.748 9.796-3.748 13.544 0l209.012 208.993c1.72 0.386 3.381 1.082 4.714 2.415l13.66 13.66c3.768 3.768 3.768 9.892 0 13.66l-218.614 218.614zM512 896c-282.759 0-512-229.221-512-512 0-282.759 229.241-512 512-512 282.779 0 512 229.241 512 512 0 282.779-229.221 512-512 512zM512-89.358c-261.429 0-473.358 211.929-473.358 473.358s211.929 473.358 473.358 473.358c261.429 0 473.358-211.929 473.358-473.358 0-261.429-211.929-473.358-473.358-473.358z"  horiz-adv-x="1024" />

    
    <glyph glyph-name="liaotian" unicode="&#58956;" d="M639.918 424.822c-24.795-0.045-44.88-20.144-44.903-44.939 0-24.85 20.143-45.061 44.903-45.061 24.759 0 44.902 20.211 44.902 45.059-0.022 24.798-20.107 44.897-44.898 44.941zM1039.791 770.961c0 34.621-28.116 62.775-62.668 62.775h-674.413c-34.552 0-62.657-28.154-62.657-62.766v-62.775h54.322v71.12h691.082v-443.348h-70.993v-54.421h62.657c34.553 0 62.668 28.164 62.668 62.766v426.659zM462.441 424.822c-24.8-0.038-44.89-20.14-44.912-44.939 0-24.85 20.152-45.061 44.912-45.061s44.902 20.211 44.902 45.059c-0.022 24.798-20.108 44.897-44.898 44.941zM862.316 593.182c0 34.611-28.116 62.766-62.668 62.766h-674.413c-34.553 0-62.657-28.154-62.657-62.766v-426.65c0-34.611 28.105-62.766 62.657-62.766h79.318v-166.050l165.697 166.050h429.398c34.552 0 62.657 28.154 62.657 62.766v426.65zM804.5 161.671h-458.168l-83.975-84.111v84.111h-141.984v436.373h684.137v-436.382zM284.966 424.822c-24.8-0.038-44.89-20.14-44.912-44.939 0-24.85 20.152-45.061 44.903-45.061 24.77 0 44.922 20.211 44.922 45.059-0.022 24.801-20.113 44.902-44.909 44.941z"  horiz-adv-x="1113" />

    
    <glyph glyph-name="liwu" unicode="&#58897;" d="M768.512-62.656H256.192a163.328 163.328 0 0 0-163.072 163.136V496.32h838.336v-395.84a163.2 163.2 0 0 0-162.944-163.136zM139.776 449.792v-349.312a116.48 116.48 0 0 1 116.416-116.48h512.32a116.48 116.48 0 0 1 116.416 116.48V449.792H139.776zM931.52 449.792h-838.4A93.248 93.248 0 0 0 0 542.912v46.592c0 51.328 41.792 93.12 93.12 93.12h838.4c51.392 0 93.184-41.792 93.184-93.12v-46.592c0-51.328-41.856-93.12-93.184-93.12z m-838.4 186.304a46.72 46.72 0 0 1-46.528-46.592v-46.592a46.72 46.72 0 0 1 46.528-46.656h838.4a46.72 46.72 0 0 1 46.656 46.656v46.592a46.656 46.656 0 0 1-46.656 46.592h-838.4zM512.32-16a23.232 23.232 0 0 0-23.296 23.296V636.096a23.296 23.296 0 0 0 46.592 0v-628.8a23.232 23.232 0 0 0-23.296-23.296zM538.368 636.096H258.112l-6.848 6.848c-39.488 39.808-60.288 92.992-56.96 145.856 2.368 37.504 16.576 69.12 39.04 86.656C250.56 888.896 273.536 896 299.904 896c52.544 0 112-27.904 158.976-74.624a267.456 267.456 0 0 0 76.608-159.488l2.88-25.792z m-260.48 46.528h206.784a222.528 222.528 0 0 1-58.56 105.792c-38.592 38.208-85.76 61.056-126.208 61.056-15.872 0-28.928-3.712-37.824-10.688-11.456-8.96-19.712-29.76-21.184-52.928-2.368-36.608 11.136-73.728 36.992-103.232zM766.592 636.096H486.336l2.816 25.792c3.968 35.072 19.008 102.4 76.608 159.488C612.8 868.096 672.256 896 724.8 896c26.304 0 49.344-7.104 66.56-20.48 22.336-17.6 36.608-49.216 38.848-86.656 3.456-52.864-17.344-106.048-56.896-145.856l-6.72-6.912z m-226.624 46.528h206.848c25.92 29.504 39.36 66.624 36.992 103.232-1.344 23.168-9.792 43.968-21.184 52.928-8.96 6.976-21.952 10.688-37.824 10.688-40.576 0-87.744-22.848-126.272-61.056a223.616 223.616 0 0 1-58.56-105.792z"  horiz-adv-x="1024" />

    
    <glyph glyph-name="jiantou" unicode="&#58900;" d="M512 896c-281.6 0-512-230.4-512-512s230.4-512 512-512 512 230.4 512 512-230.4 512-512 512z m0-938.666667c-234.666667 0-426.666667 192-426.666667 426.666667s192 426.666667 426.666667 426.666667 426.666667-192 426.666667-426.666667-192-426.666667-426.666667-426.666667zM793.6 499.2c-17.066667 17.066667-42.666667 17.066667-59.733333 0l-221.866667-221.866667-221.866667 221.866667c-17.066667 17.066667-42.666667 17.066667-59.733333 0-17.066667-17.066667-17.066667-42.666667 0-59.733333l251.733333-251.733334c17.066667-17.066667 42.666667-17.066667 59.733334 0l251.733333 251.733334c17.066667 12.8 17.066667 42.666667 0 59.733333z"  horiz-adv-x="1024" />

    
    <glyph glyph-name="weizhi" unicode="&#58931;" d="M512 864c176.448 0 320-151.392 320-337.504 0-60.992-15.616-120.8-45.12-172.896l-247.552-435.936a26.432 26.432 0 0 0-22.688-13.664h-0.192a26.4 26.4 0 0 0-22.656 13.28L239.776 349.024A350.592 350.592 0 0 0 192 526.496C192 712.64 335.552 864 512 864z m219.808-478.272A288.192 288.192 0 0 1 768 525.888C768 676.832 653.12 800 512.096 800S256 676.832 256 525.888c0-50.976 13.536-100.736 38.464-143.872L515.968 0l215.84 385.728zM512 704c88.224 0 160-71.776 160-160 0-86.72-69.504-160-160-160-89.376 0-160 72.32-160 160 0 88.224 71.776 160 160 160z m0.064-256A95.936 95.936 0 0 1 608 544c0 52.768-43.104 96-95.936 96A96.384 96.384 0 0 1 416 544c0-52.896 43.008-96 96.064-96z"  horiz-adv-x="1024" />

    
    <glyph glyph-name="jiantou1" unicode="&#59471;" d="M444.081633 206.367347c-5.22449 0-10.44898 2.089796-14.628572 6.269388-8.359184 8.359184-8.359184 21.420408 0 29.779592l156.734694 156.734693c8.359184 8.359184 21.420408 8.359184 29.779592 0 8.359184-8.359184 8.359184-21.420408 0-29.779591l-156.734694-156.734694c-4.702041-4.179592-9.926531-6.269388-15.15102-6.269388zM600.816327 363.102041c-5.22449 0-10.44898 2.089796-14.628572 6.269388l-156.734694 156.734693c-8.359184 8.359184-8.359184 21.420408 0 29.779592 8.359184 8.359184 21.420408 8.359184 29.779592 0l156.734694-156.734694c8.359184-8.359184 8.359184-21.420408 0-29.779591-4.702041-4.179592-9.926531-6.269388-15.15102-6.269388zM512-33.959184c-230.4 0-417.959184 187.559184-417.959184 417.959184s187.559184 417.959184 417.959184 417.959184 417.959184-187.559184 417.959184-417.959184-187.559184-417.959184-417.959184-417.959184z m0 794.122449c-207.412245 0-376.163265-168.75102-376.163265-376.163265s168.75102-376.163265 376.163265-376.163265 376.163265 168.75102 376.163265 376.163265-168.75102 376.163265-376.163265 376.163265z"  horiz-adv-x="1024" />

    
    <glyph glyph-name="jiantou2" unicode="&#59035;" d="M788.48 384L312.32 109.07648V658.90304z"  horiz-adv-x="1024" />

    
    <glyph glyph-name="arrow-right-circle" unicode="&#58981;" d="M512 821.333333C270.933333 821.333333 74.666667 625.066667 74.666667 384S270.933333-53.33333300000004 512-53.33333300000004 949.333333 142.93333299999995 949.333333 384 753.066667 821.333333 512 821.333333z m0-810.666666c-204.8 0-373.333333 168.533333-373.333333 373.333333S307.2 757.333333 512 757.333333 885.333333 588.8 885.333333 384 716.8 10.666666999999961 512 10.666666999999961zM546.133333 586.666667c-12.8 12.8-32 12.8-44.8 2.133333-12.8-12.8-12.8-32-2.133333-44.8l119.466667-128H341.333333c-17.066667 0-32-14.933333-32-32s14.933333-32 32-32h277.333334l-119.466667-128c-12.8-12.8-10.666667-34.133333 2.133333-44.8 6.4-6.4 14.933333-8.533333 21.333334-8.533333 8.533333 0 17.066667 4.266667 23.466666 10.666666l170.666667 181.333334c10.666667 12.8 10.666667 32 0 44.8l-170.666667 179.2z"  horiz-adv-x="1024" />

    
    <glyph glyph-name="reload" unicode="&#59273;" d="M909.1 686.7l-56.4-44.1C775.8 740.9 656.2 804 521.9 804 290 804 102.3 616.5 102 384.5 101.7 152.3 289.8-36 521.9-36c181.3 0 335.8 115 394.6 276.1 1.5 4.2-0.7 8.9-4.9 10.3l-56.7 19.5c-4.1 1.4-8.6-0.7-10.1-4.8-1.8-5-3.8-10-5.9-14.9-17.3-41-42.1-77.8-73.7-109.4-31.6-31.6-68.4-56.4-109.3-73.8-42.3-17.9-87.4-27-133.8-27-46.5 0-91.5 9.1-133.8 27-40.9 17.3-77.7 42.1-109.3 73.8-31.6 31.6-56.4 68.4-73.7 109.4-17.9 42.4-27 87.4-27 133.9s9.1 91.5 27 133.9c17.3 41 42.1 77.8 73.7 109.4 31.6 31.6 68.4 56.4 109.3 73.8 42.3 17.9 87.4 27 133.8 27 46.5 0 91.5-9.1 133.8-27 40.9-17.3 77.7-42.1 109.3-73.8 9.9-9.9 19.2-20.4 27.8-31.4l-60.2-47c-5.3-4.1-3.5-12.5 3-14.1l175.6-43c5-1.2 9.9 2.6 9.9 7.7l0.8 180.9c-0.1 6.6-7.8 10.3-13 6.2z"  horiz-adv-x="1024" />

    
    <glyph glyph-name="message" unicode="&#59274;" d="M512 384m-48 0a48 48 0 1 1 96 0 48 48 0 1 1-96 0ZM712 384m-48 0a48 48 0 1 1 96 0 48 48 0 1 1-96 0ZM312 384m-48 0a48 48 0 1 1 96 0 48 48 0 1 1-96 0ZM925.2 557.6c-22.6 53.7-55 101.9-96.3 143.3-41.3 41.3-89.5 73.8-143.3 96.3C630.6 820.3 572.2 832 512 832h-2c-60.6-0.3-119.3-12.3-174.5-35.9-53.3-22.8-101.1-55.2-142-96.5-40.9-41.3-73-89.3-95.2-142.8-23-55.4-34.6-114.3-34.3-174.9 0.3-69.4 16.9-138.3 48-199.9v-152c0-25.4 20.6-46 46-46h152.1c61.6-31.1 130.5-47.7 199.9-48h2.1c59.9 0 118 11.6 172.7 34.3 53.5 22.3 101.6 54.3 142.8 95.2 41.3 40.9 73.8 88.7 96.5 142 23.6 55.2 35.6 113.9 35.9 174.5 0.3 60.9-11.5 120-34.8 175.6z m-151.1-438C704 50.2 611 12 512 12h-1.7c-60.3 0.3-120.2 15.3-173.1 43.5l-8.4 4.5H188V200.8l-4.5 8.4C155.3 262.1 140.3 322 140 382.3c-0.4 99.7 37.7 193.3 107.6 263.8 69.8 70.5 163.1 109.5 262.8 109.9h1.7c50 0 98.5-9.7 144.2-28.9 44.6-18.7 84.6-45.6 119-80 34.3-34.3 61.3-74.4 80-119 19.4-46.2 29.1-95.2 28.9-145.8-0.6-99.6-39.7-192.9-110.1-262.7z"  horiz-adv-x="1024" />

    
    <glyph glyph-name="verticalleft" unicode="&#59370;" d="M762 732h-64c-4.4 0-8-3.6-8-8v-688c0-4.4 3.6-8 8-8h64c4.4 0 8 3.6 8 8V724c0 4.4-3.6 8-8 8zM254 732v-72.4c0-9.5 4.2-18.4 11.4-24.5L564.6 384 265.4 132.9c-7.2-6.1-11.4-15-11.4-24.5V36c0-6.8 7.9-10.5 13.1-6.1L689 384 267.1 738.1c-5.2 4.4-13.1 0.7-13.1-6.1z"  horiz-adv-x="1024" />

    
    <glyph glyph-name="right" unicode="&#59371;" d="M765.7 409.2L314.9 761.3c-5.3 4.1-12.9 0.4-12.9-6.3v-77.3c0-4.9 2.3-9.6 6.1-12.6l360-281.1-360-281.1c-3.9-3-6.1-7.7-6.1-12.6V13c0-6.7 7.7-10.4 12.9-6.3l450.8 352.1c16.4 12.8 16.4 37.6 0 50.4z"  horiz-adv-x="1024" />

    
    <glyph glyph-name="left" unicode="&#59372;" d="M724 677.7V755c0 6.7-7.7 10.4-12.9 6.3L260.3 409.2c-16.4-12.8-16.4-37.5 0-50.3l450.8-352.1c5.3-4.1 12.9-0.4 12.9 6.3v77.3c0 4.9-2.3 9.6-6.1 12.6l-360 281 360 281.1c3.8 3 6.1 7.7 6.1 12.6z"  horiz-adv-x="1024" />

    
    <glyph glyph-name="up" unicode="&#59373;" d="M890.5 140.7L537.9 626.8c-12.8 17.6-39 17.6-51.7 0L133.5 140.7c-3.8-5.3-0.1-12.7 6.5-12.7h75c5.1 0 9.9 2.5 12.9 6.6L512 526.2l284.1-391.6c3-4.1 7.8-6.6 12.9-6.6h75c6.5 0 10.3 7.4 6.5 12.7z"  horiz-adv-x="1024" />

    
    <glyph glyph-name="down" unicode="&#59374;" d="M884 640h-75c-5.1 0-9.9-2.5-12.9-6.6L512 241.8 227.9 633.4c-3 4.1-7.8 6.6-12.9 6.6h-75c-6.5 0-10.3-7.4-6.5-12.7l352.6-486.1c12.8-17.6 39-17.6 51.7 0l352.6 486.1c3.9 5.3 0.1 12.7-6.4 12.7z"  horiz-adv-x="1024" />

    
    <glyph glyph-name="arrowright" unicode="&#59375;" d="M869 408.2L491.2 736.1c-2.9 2.5-6.6 3.9-10.5 3.9h-88.5c-7.4 0-10.8-9.2-5.2-14l350.2-304H152c-4.4 0-8-3.6-8-8v-60c0-4.4 3.6-8 8-8h585.1L386.9 42c-5.6-4.9-2.2-14 5.2-14h91.5c1.9 0 3.8 0.7 5.2 2L869 359.8c14.7 12.8 14.7 35.6 0 48.4z"  horiz-adv-x="1024" />

    
    <glyph glyph-name="arrowup" unicode="&#59376;" d="M868 350.5L536.1 733c-12.7 14.7-35.5 14.7-48.3 0L156 350.5c-4.5-5.2-0.8-13.2 6-13.2h81c4.6 0 9 2 12.1 5.5L474 595.1V32c0-4.4 3.6-8 8-8h60c4.4 0 8 3.6 8 8V595.1l218.9-252.3c3-3.5 7.4-5.5 12.1-5.5h81c6.8 0 10.5 8 6 13.2z"  horiz-adv-x="1024" />

    
    <glyph glyph-name="arrowdown" unicode="&#59377;" d="M862 430.7h-81c-4.6 0-9-2-12.1-5.5L550 172.9V736c0 4.4-3.6 8-8 8h-60c-4.4 0-8-3.6-8-8v-563.1L255.1 425.2c-3 3.5-7.4 5.5-12.1 5.5h-81c-6.8 0-10.5-8.1-6-13.2L487.9 35c12.7-14.7 35.5-14.7 48.3 0L868 417.5c4.5 5.2 0.8 13.2-6 13.2z"  horiz-adv-x="1024" />

    
    <glyph glyph-name="download" unicode="&#59378;" d="M505.7 235c3.2-4.1 9.4-4.1 12.6 0l112 141.7c4.1 5.2 0.4 12.9-6.3 12.9h-74.1V728c0 4.4-3.6 8-8 8h-60c-4.4 0-8-3.6-8-8v-338.3H400c-6.7 0-10.4-7.7-6.3-12.9l112-141.8zM878 270h-60c-4.4 0-8-3.6-8-8v-154H214V262c0 4.4-3.6 8-8 8h-60c-4.4 0-8-3.6-8-8v-198c0-17.7 14.3-32 32-32h684c17.7 0 32 14.3 32 32V262c0 4.4-3.6 8-8 8z"  horiz-adv-x="1024" />

    
    <glyph glyph-name="heart-fill" unicode="&#59465;" d="M923 612.4c-13.4 31.1-32.6 58.9-56.9 82.8-24.3 23.8-52.5 42.4-84 55.5-32.5 13.5-66.9 20.3-102.4 20.3-49.3 0-97.4-13.5-139.2-39-10-6.1-19.5-12.8-28.5-20.1-9 7.3-18.5 14-28.5 20.1-41.8 25.5-89.9 39-139.2 39-35.5 0-69.9-6.8-102.4-20.3-31.4-13-59.7-31.7-84-55.5-24.4-23.9-43.5-51.7-56.9-82.8-13.9-32.3-21-66.6-21-101.9 0-33.3 6.8-68 20.3-103.3 11.3-29.5 27.5-60.1 48.2-91 32.8-48.9 77.9-99.9 133.9-151.6 92.8-85.7 184.7-144.9 188.6-147.3l23.7-15.2c10.5-6.7 24-6.7 34.5 0l23.7 15.2c3.9 2.5 95.7 61.6 188.6 147.3 56 51.7 101.1 102.7 133.9 151.6 20.7 30.9 37 61.5 48.2 91 13.5 35.3 20.3 70 20.3 103.3 0.1 35.3-7 69.6-20.9 101.9z"  horiz-adv-x="1024" />

    
    <glyph glyph-name="apple" unicode="&#59518;" d="M747.4 360.3c-0.4 68.2 30.5 119.6 92.9 157.5-34.9 50-87.7 77.5-157.3 82.8-65.9 5.2-138-38.4-164.4-38.4-27.9 0-91.7 36.6-141.9 36.6C273.1 597.2 163 516.2 163 351.4c0-48.7 8.9-99 26.7-150.8 23.8-68.2 109.6-235.3 199.1-232.6 46.8 1.1 79.9 33.2 140.8 33.2 59.1 0 89.7-33.2 141.9-33.2 90.3 1.3 167.9 153.2 190.5 221.6-121.1 57.1-114.6 167.2-114.6 170.7z m-10.6-267c-14.3-19.9-28.7-35.6-41.9-45.7-10.5-8-18.6-11.4-24-11.6-9 0.1-17.7 2.3-34.7 8.8-1.2 0.5-2.5 1-4.2 1.6-0.8 0.3-3.9 1.5-4.4 1.7-17.4 6.7-27.8 10.3-41.1 13.8-18.6 4.8-37.1 7.4-56.9 7.4-20.2 0-39.2-2.5-58.1-7.2-13.9-3.5-25.6-7.4-42.7-13.8-0.7-0.3-8.1-3.1-10.2-3.9-3.5-1.3-6.2-2.3-8.7-3.2-10.4-3.6-17-5.1-22.9-5.2-0.7 0-1.3 0.1-1.8 0.2-1.1 0.2-2.5 0.6-4.1 1.3-4.5 1.8-9.9 5.1-16 9.8-14 10.9-29.4 28-45.1 49.9-27.5 38.6-53.5 89.8-66 125.7-15.4 44.8-23 87.7-23 128.6 0 60.2 17.8 106 48.4 137.1 26.3 26.6 61.7 41.5 97.8 42.3 5.9-0.1 14.5-1.5 25.4-4.5 8.6-2.3 18-5.4 30.7-9.9 3.8-1.4 16.9-6.1 18.5-6.7 7.7-2.8 13.5-4.8 19.2-6.6 18.2-5.8 32.3-9 47.6-9 15.5 0 28.8 3.3 47.7 9.8 7.1 2.4 32.9 12 37.5 13.6 25.6 9.1 44.5 14 60.8 15.2 4.8 0.4 9.1 0.4 13.2 0.1 22.7-1.8 42.1-6.3 58.6-13.8-37.6-43.4-57-96.5-56.9-158.4-0.3-14.7 0.9-31.7 5.1-51.8 6.4-30.5 18.6-60.7 37.9-89 14.7-21.5 32.9-40.9 54.7-57.8-11.5-23.7-25.6-48.2-40.4-68.8zM642.3 665.3c50.7 60.2 46.1 115 44.6 134.7-44.8-2.6-96.6-30.5-126.1-64.8-32.5-36.8-51.6-82.3-47.5-133.6 48.4-3.7 92.6 21.2 129 63.7z"  horiz-adv-x="1024" />

    
    <glyph glyph-name="caret-down" unicode="&#59628;" d="M840.4 596H183.6c-19.7 0-30.7-20.8-18.5-35l328.4-380.8c9.4-10.9 27.5-10.9 37 0L858.9 561c12.2 14.2 1.2 35-18.5 35z"  horiz-adv-x="1024" />

    
    <glyph glyph-name="caret-up" unicode="&#59629;" d="M858.9 207L530.5 587.8c-9.4 10.9-27.5 10.9-37 0L165.1 207c-12.2-14.2-1.2-35 18.5-35h656.8c19.7 0 30.7 20.8 18.5 35z"  horiz-adv-x="1024" />

    
    <glyph glyph-name="caret-right" unicode="&#59630;" d="M715.8 402.5L335 730.9c-14.2 12.2-35 1.2-35-18.5v-656.8c0-19.7 20.8-30.7 35-18.5l380.8 328.4c10.9 9.4 10.9 27.6 0 37z"  horiz-adv-x="1024" />

    
    <glyph glyph-name="caret-left" unicode="&#59631;" d="M689 730.9L308.2 402.5c-10.9-9.4-10.9-27.5 0-37L689 37.1c14.2-12.2 35-1.2 35 18.5V712.4c0 19.7-20.8 30.7-35 18.5z"  horiz-adv-x="1024" />

    
    <glyph glyph-name="search" unicode="&#59632;" d="M909.6 41.5L649.9 301.2C690.2 353.3 712 417 712 484c0 80.2-31.3 155.4-87.9 212.1-56.6 56.7-132 87.9-212.1 87.9s-155.5-31.3-212.1-87.9C143.2 639.5 112 564.2 112 484c0-80.1 31.3-155.5 87.9-212.1C256.5 215.2 331.8 184 412 184c67 0 130.6 21.8 182.7 62l259.7-259.6c3.2-3.2 8.4-3.2 11.6 0l43.6 43.5c3.2 3.2 3.2 8.4 0 11.6zM570.4 325.6C528 283.3 471.8 260 412 260s-116 23.3-158.4 65.6C211.3 368 188 424.2 188 484s23.3 116.1 65.6 158.4C296 684.7 352.2 708 412 708s116.1-23.2 158.4-65.6S636 543.8 636 484s-23.3-116.1-65.6-158.4z"  horiz-adv-x="1024" />

    
    <glyph glyph-name="undo" unicode="&#59271;" d="M511.4 772C290.5 771.7 112 593 112 372.1c0-128 60.2-242 153.8-315.2l-37.5-48c-4.1-5.3-0.3-13 6.3-12.9l167 0.8c5.2 0 9 4.9 7.7 9.9L369.8 169c-1.6 6.5-10 8.3-14.1 3L315 119.9c-10.2 8-20 16.7-29.3 26-29.4 29.4-52.5 63.6-68.6 101.7C200.4 287 192 328.9 192 372.1s8.4 85.1 25.1 124.5c16.1 38.1 39.2 72.3 68.6 101.7 29.4 29.4 63.6 52.5 101.7 68.6C426.9 683.6 468.8 692 512 692s85.1-8.4 124.5-25.1c38.1-16.1 72.3-39.2 101.7-68.6 29.4-29.4 52.5-63.6 68.6-101.7 16.7-39.4 25.1-81.3 25.1-124.5s-8.4-85.1-25.1-124.5c-16.1-38.1-39.2-72.3-68.6-101.7-7.5-7.5-15.3-14.5-23.4-21.2-3.4-2.8-3.9-7.7-1.2-11.1l39.4-50.5c2.8-3.5 7.9-4.1 11.4-1.3C854.5 135.2 912 246.9 912 372.1c0 221.1-179.4 400.2-400.6 399.9z"  horiz-adv-x="1024" />

    
    <glyph glyph-name="redo" unicode="&#59272;" d="M758.2 56.9C851.8 130.1 912 244.1 912 372.1 912 593 733.5 771.7 512.6 772 291.4 772.3 112 593.2 112 372.1c0-125.2 57.5-236.9 147.6-310.2 3.5-2.8 8.6-2.2 11.4 1.3l39.4 50.5c2.7 3.4 2.1 8.3-1.2 11.1-8.1 6.6-15.9 13.7-23.4 21.2-29.4 29.4-52.5 63.6-68.6 101.7C200.4 287 192 328.9 192 372.1s8.4 85.1 25.1 124.5c16.1 38.1 39.2 72.3 68.6 101.7 29.4 29.4 63.6 52.5 101.7 68.6C426.9 683.6 468.8 692 512 692s85.1-8.4 124.5-25.1c38.1-16.1 72.3-39.2 101.7-68.6 29.4-29.4 52.5-63.6 68.6-101.7 16.7-39.4 25.1-81.3 25.1-124.5s-8.4-85.1-25.1-124.5c-16.1-38.1-39.2-72.3-68.6-101.7-9.3-9.3-19.1-18-29.3-26L668.2 172c-4.1 5.3-12.5 3.5-14.1-3l-39.6-162.2c-1.2-5 2.6-9.9 7.7-9.9l167-0.8c6.7 0 10.5 7.7 6.3 12.9l-37.3 47.9z"  horiz-adv-x="1024" />

    


  </font>
</defs>
</svg>
